<?xml version="1.0" encoding="UTF-8" standalone="no"?>
<svg
   xmlns:dc="http://purl.org/dc/elements/1.1/"
   xmlns:cc="http://creativecommons.org/ns#"
   xmlns:rdf="http://www.w3.org/1999/02/22-rdf-syntax-ns#"
   xmlns:svg="http://www.w3.org/2000/svg"
   xmlns="http://www.w3.org/2000/svg"
   viewBox="0 0 816 1056"
   height="1056"
   width="816"
   xml:space="preserve"
   id="svg2"
   version="1.1"><metadata
     id="metadata8"><rdf:RDF><cc:Work
         rdf:about=""><dc:format>image/svg+xml</dc:format><dc:type
           rdf:resource="http://purl.org/dc/dcmitype/StillImage" /></cc:Work></rdf:RDF></metadata><defs
     id="defs6"><clipPath
       id="clipPath18"
       clipPathUnits="userSpaceOnUse"><path
         style="clip-rule:evenodd"
         id="path16"
         d="M 9.12e-6,0 H 612.00001 V 792 H 9.12e-6 Z" /></clipPath><clipPath
       id="clipPath30"
       clipPathUnits="userSpaceOnUse"><path
         style="clip-rule:evenodd"
         id="path28"
         d="M 9.12e-6,0 H 612.00001 V 792 H 9.12e-6 Z" /></clipPath><clipPath
       id="clipPath38"
       clipPathUnits="userSpaceOnUse"><path
         style="clip-rule:evenodd"
         id="path36"
         d="M 9.12e-6,0 H 612.00001 V 792 H 9.12e-6 Z" /></clipPath><clipPath
       id="clipPath46"
       clipPathUnits="userSpaceOnUse"><path
         style="clip-rule:evenodd"
         id="path44"
         d="M 9.12e-6,0 H 612.00001 V 792 H 9.12e-6 Z" /></clipPath><clipPath
       id="clipPath58"
       clipPathUnits="userSpaceOnUse"><path
         style="clip-rule:evenodd"
         id="path56"
         d="M 9.12e-6,0 H 612.00001 V 792 H 9.12e-6 Z" /></clipPath><clipPath
       id="clipPath66"
       clipPathUnits="userSpaceOnUse"><path
         style="clip-rule:evenodd"
         id="path64"
         d="M 9.12e-6,0 H 612.00001 V 792 H 9.12e-6 Z" /></clipPath><clipPath
       id="clipPath74"
       clipPathUnits="userSpaceOnUse"><path
         style="clip-rule:evenodd"
         id="path72"
         d="M 9.12e-6,0 H 612.00001 V 792 H 9.12e-6 Z" /></clipPath><clipPath
       id="clipPath86"
       clipPathUnits="userSpaceOnUse"><path
         style="clip-rule:evenodd"
         id="path84"
         d="M 9.12e-6,0 H 612.00001 V 792 H 9.12e-6 Z" /></clipPath><clipPath
       id="clipPath98"
       clipPathUnits="userSpaceOnUse"><path
         style="clip-rule:evenodd"
         id="path96"
         d="M 9.12e-6,0 H 612.00001 V 792 H 9.12e-6 Z" /></clipPath><clipPath
       id="clipPath110"
       clipPathUnits="userSpaceOnUse"><path
         style="clip-rule:evenodd"
         id="path108"
         d="M 9.12e-6,0 H 612.00001 V 792 H 9.12e-6 Z" /></clipPath><clipPath
       id="clipPath122"
       clipPathUnits="userSpaceOnUse"><path
         style="clip-rule:evenodd"
         id="path120"
         d="M 9.12e-6,0 H 612.00001 V 792 H 9.12e-6 Z" /></clipPath><clipPath
       id="clipPath134"
       clipPathUnits="userSpaceOnUse"><path
         style="clip-rule:evenodd"
         id="path132"
         d="M 9.12e-6,0 H 612.00001 V 792 H 9.12e-6 Z" /></clipPath><clipPath
       id="clipPath146"
       clipPathUnits="userSpaceOnUse"><path
         style="clip-rule:evenodd"
         id="path144"
         d="M 9.12e-6,0 H 612.00001 V 792 H 9.12e-6 Z" /></clipPath><clipPath
       id="clipPath154"
       clipPathUnits="userSpaceOnUse"><path
         style="clip-rule:evenodd"
         id="path152"
         d="M 9.12e-6,0 H 612.00001 V 792 H 9.12e-6 Z" /></clipPath><clipPath
       id="clipPath162"
       clipPathUnits="userSpaceOnUse"><path
         style="clip-rule:evenodd"
         id="path160"
         d="M 9.12e-6,0 H 612.00001 V 792 H 9.12e-6 Z" /></clipPath><clipPath
       id="clipPath174"
       clipPathUnits="userSpaceOnUse"><path
         style="clip-rule:evenodd"
         id="path172"
         d="M 9.12e-6,0 H 612.00001 V 792 H 9.12e-6 Z" /></clipPath><clipPath
       id="clipPath186"
       clipPathUnits="userSpaceOnUse"><path
         style="clip-rule:evenodd"
         id="path184"
         d="M 9.12e-6,0 H 612.00001 V 792 H 9.12e-6 Z" /></clipPath><clipPath
       id="clipPath198"
       clipPathUnits="userSpaceOnUse"><path
         style="clip-rule:evenodd"
         id="path196"
         d="M 9.12e-6,0 H 612.00001 V 792 H 9.12e-6 Z" /></clipPath><clipPath
       id="clipPath210"
       clipPathUnits="userSpaceOnUse"><path
         style="clip-rule:evenodd"
         id="path208"
         d="M 9.12e-6,0 H 612.00001 V 792 H 9.12e-6 Z" /></clipPath><clipPath
       id="clipPath222"
       clipPathUnits="userSpaceOnUse"><path
         style="clip-rule:evenodd"
         id="path220"
         d="M 9.12e-6,0 H 612.00001 V 792 H 9.12e-6 Z" /></clipPath><clipPath
       id="clipPath230"
       clipPathUnits="userSpaceOnUse"><path
         style="clip-rule:evenodd"
         id="path228"
         d="M 9.12e-6,0 H 612.00001 V 792 H 9.12e-6 Z" /></clipPath><clipPath
       id="clipPath238"
       clipPathUnits="userSpaceOnUse"><path
         style="clip-rule:evenodd"
         id="path236"
         d="M 9.12e-6,0 H 612.00001 V 792 H 9.12e-6 Z" /></clipPath><clipPath
       id="clipPath250"
       clipPathUnits="userSpaceOnUse"><path
         style="clip-rule:evenodd"
         id="path248"
         d="M 9.12e-6,0 H 612.00001 V 792 H 9.12e-6 Z" /></clipPath><clipPath
       id="clipPath262"
       clipPathUnits="userSpaceOnUse"><path
         style="clip-rule:evenodd"
         id="path260"
         d="M 9.12e-6,0 H 612.00001 V 792 H 9.12e-6 Z" /></clipPath><clipPath
       id="clipPath274"
       clipPathUnits="userSpaceOnUse"><path
         style="clip-rule:evenodd"
         id="path272"
         d="M 9.12e-6,0 H 612.00001 V 792 H 9.12e-6 Z" /></clipPath><clipPath
       id="clipPath286"
       clipPathUnits="userSpaceOnUse"><path
         style="clip-rule:evenodd"
         id="path284"
         d="M 9.12e-6,0 H 612.00001 V 792 H 9.12e-6 Z" /></clipPath><clipPath
       id="clipPath294"
       clipPathUnits="userSpaceOnUse"><path
         style="clip-rule:evenodd"
         id="path292"
         d="M 9.12e-6,0 H 612.00001 V 792 H 9.12e-6 Z" /></clipPath><clipPath
       id="clipPath306"
       clipPathUnits="userSpaceOnUse"><path
         style="clip-rule:evenodd"
         id="path304"
         d="M 9.12e-6,0 H 612.00001 V 792 H 9.12e-6 Z" /></clipPath><clipPath
       id="clipPath318"
       clipPathUnits="userSpaceOnUse"><path
         style="clip-rule:evenodd"
         id="path316"
         d="M 9.12e-6,0 H 612.00001 V 792 H 9.12e-6 Z" /></clipPath><clipPath
       id="clipPath330"
       clipPathUnits="userSpaceOnUse"><path
         style="clip-rule:evenodd"
         id="path328"
         d="M 9.12e-6,0 H 612.00001 V 792 H 9.12e-6 Z" /></clipPath><clipPath
       id="clipPath342"
       clipPathUnits="userSpaceOnUse"><path
         style="clip-rule:evenodd"
         id="path340"
         d="M 9.12e-6,0 H 612.00001 V 792 H 9.12e-6 Z" /></clipPath><clipPath
       id="clipPath350"
       clipPathUnits="userSpaceOnUse"><path
         style="clip-rule:evenodd"
         id="path348"
         d="M 9.12e-6,0 H 612.00001 V 792 H 9.12e-6 Z" /></clipPath><clipPath
       id="clipPath362"
       clipPathUnits="userSpaceOnUse"><path
         style="clip-rule:evenodd"
         id="path360"
         d="M 9.12e-6,0 H 612.00001 V 792 H 9.12e-6 Z" /></clipPath><clipPath
       id="clipPath374"
       clipPathUnits="userSpaceOnUse"><path
         style="clip-rule:evenodd"
         id="path372"
         d="M 9.12e-6,0 H 612.00001 V 792 H 9.12e-6 Z" /></clipPath><clipPath
       id="clipPath386"
       clipPathUnits="userSpaceOnUse"><path
         style="clip-rule:evenodd"
         id="path384"
         d="M 9.12e-6,0 H 612.00001 V 792 H 9.12e-6 Z" /></clipPath><clipPath
       id="clipPath394"
       clipPathUnits="userSpaceOnUse"><path
         style="clip-rule:evenodd"
         id="path392"
         d="M 9.12e-6,0 H 612.00001 V 792 H 9.12e-6 Z" /></clipPath><clipPath
       id="clipPath402"
       clipPathUnits="userSpaceOnUse"><path
         style="clip-rule:evenodd"
         id="path400"
         d="M 9.12e-6,0 H 612.00001 V 792 H 9.12e-6 Z" /></clipPath><clipPath
       id="clipPath414"
       clipPathUnits="userSpaceOnUse"><path
         style="clip-rule:evenodd"
         id="path412"
         d="M 9.12e-6,0 H 612.00001 V 792 H 9.12e-6 Z" /></clipPath><clipPath
       id="clipPath426"
       clipPathUnits="userSpaceOnUse"><path
         style="clip-rule:evenodd"
         id="path424"
         d="M 9.12e-6,0 H 612.00001 V 792 H 9.12e-6 Z" /></clipPath><clipPath
       id="clipPath438"
       clipPathUnits="userSpaceOnUse"><path
         style="clip-rule:evenodd"
         id="path436"
         d="M 9.12e-6,0 H 612.00001 V 792 H 9.12e-6 Z" /></clipPath><clipPath
       id="clipPath450"
       clipPathUnits="userSpaceOnUse"><path
         style="clip-rule:evenodd"
         id="path448"
         d="M 9.12e-6,0 H 612.00001 V 792 H 9.12e-6 Z" /></clipPath><clipPath
       id="clipPath462"
       clipPathUnits="userSpaceOnUse"><path
         style="clip-rule:evenodd"
         id="path460"
         d="M 9.12e-6,0 H 612.00001 V 792 H 9.12e-6 Z" /></clipPath><clipPath
       id="clipPath474"
       clipPathUnits="userSpaceOnUse"><path
         style="clip-rule:evenodd"
         id="path472"
         d="M 9.12e-6,0 H 612.00001 V 792 H 9.12e-6 Z" /></clipPath><clipPath
       id="clipPath486"
       clipPathUnits="userSpaceOnUse"><path
         style="clip-rule:evenodd"
         id="path484"
         d="M 9.12e-6,0 H 612.00001 V 792 H 9.12e-6 Z" /></clipPath><clipPath
       id="clipPath498"
       clipPathUnits="userSpaceOnUse"><path
         style="clip-rule:evenodd"
         id="path496"
         d="M 9.12e-6,0 H 612.00001 V 792 H 9.12e-6 Z" /></clipPath><clipPath
       id="clipPath510"
       clipPathUnits="userSpaceOnUse"><path
         style="clip-rule:evenodd"
         id="path508"
         d="M 9.12e-6,0 H 612.00001 V 792 H 9.12e-6 Z" /></clipPath><clipPath
       id="clipPath522"
       clipPathUnits="userSpaceOnUse"><path
         style="clip-rule:evenodd"
         id="path520"
         d="M 9.12e-6,0 H 612.00001 V 792 H 9.12e-6 Z" /></clipPath><clipPath
       id="clipPath534"
       clipPathUnits="userSpaceOnUse"><path
         style="clip-rule:evenodd"
         id="path532"
         d="M 9.12e-6,0 H 612.00001 V 792 H 9.12e-6 Z" /></clipPath><clipPath
       id="clipPath546"
       clipPathUnits="userSpaceOnUse"><path
         style="clip-rule:evenodd"
         id="path544"
         d="M 9.12e-6,0 H 612.00001 V 792 H 9.12e-6 Z" /></clipPath><clipPath
       id="clipPath558"
       clipPathUnits="userSpaceOnUse"><path
         style="clip-rule:evenodd"
         id="path556"
         d="M 9.12e-6,0 H 612.00001 V 792 H 9.12e-6 Z" /></clipPath><clipPath
       id="clipPath566"
       clipPathUnits="userSpaceOnUse"><path
         style="clip-rule:evenodd"
         id="path564"
         d="M 9.12e-6,0 H 612.00001 V 792 H 9.12e-6 Z" /></clipPath><clipPath
       id="clipPath574"
       clipPathUnits="userSpaceOnUse"><path
         style="clip-rule:evenodd"
         id="path572"
         d="M 9.12e-6,0 H 612.00001 V 792 H 9.12e-6 Z" /></clipPath><clipPath
       id="clipPath586"
       clipPathUnits="userSpaceOnUse"><path
         style="clip-rule:evenodd"
         id="path584"
         d="M 9.12e-6,0 H 612.00001 V 792 H 9.12e-6 Z" /></clipPath><clipPath
       id="clipPath598"
       clipPathUnits="userSpaceOnUse"><path
         style="clip-rule:evenodd"
         id="path596"
         d="M 9.12e-6,0 H 612.00001 V 792 H 9.12e-6 Z" /></clipPath><clipPath
       id="clipPath610"
       clipPathUnits="userSpaceOnUse"><path
         style="clip-rule:evenodd"
         id="path608"
         d="M 9.12e-6,0 H 612.00001 V 792 H 9.12e-6 Z" /></clipPath><clipPath
       id="clipPath622"
       clipPathUnits="userSpaceOnUse"><path
         style="clip-rule:evenodd"
         id="path620"
         d="M 9.12e-6,0 H 612.00001 V 792 H 9.12e-6 Z" /></clipPath><clipPath
       id="clipPath634"
       clipPathUnits="userSpaceOnUse"><path
         style="clip-rule:evenodd"
         id="path632"
         d="M 9.12e-6,0 H 612.00001 V 792 H 9.12e-6 Z" /></clipPath><clipPath
       id="clipPath646"
       clipPathUnits="userSpaceOnUse"><path
         style="clip-rule:evenodd"
         id="path644"
         d="M 9.12e-6,0 H 612.00001 V 792 H 9.12e-6 Z" /></clipPath><clipPath
       id="clipPath658"
       clipPathUnits="userSpaceOnUse"><path
         style="clip-rule:evenodd"
         id="path656"
         d="M 9.12e-6,0 H 612.00001 V 792 H 9.12e-6 Z" /></clipPath><clipPath
       id="clipPath666"
       clipPathUnits="userSpaceOnUse"><path
         style="clip-rule:evenodd"
         id="path664"
         d="M 9.12e-6,0 H 612.00001 V 792 H 9.12e-6 Z" /></clipPath><clipPath
       id="clipPath674"
       clipPathUnits="userSpaceOnUse"><path
         style="clip-rule:evenodd"
         id="path672"
         d="M 9.12e-6,0 H 612.00001 V 792 H 9.12e-6 Z" /></clipPath><clipPath
       id="clipPath686"
       clipPathUnits="userSpaceOnUse"><path
         style="clip-rule:evenodd"
         id="path684"
         d="M 9.12e-6,0 H 612.00001 V 792 H 9.12e-6 Z" /></clipPath><clipPath
       id="clipPath698"
       clipPathUnits="userSpaceOnUse"><path
         style="clip-rule:evenodd"
         id="path696"
         d="M 9.12e-6,0 H 612.00001 V 792 H 9.12e-6 Z" /></clipPath><clipPath
       id="clipPath710"
       clipPathUnits="userSpaceOnUse"><path
         style="clip-rule:evenodd"
         id="path708"
         d="M 9.12e-6,0 H 612.00001 V 792 H 9.12e-6 Z" /></clipPath><clipPath
       id="clipPath722"
       clipPathUnits="userSpaceOnUse"><path
         style="clip-rule:evenodd"
         id="path720"
         d="M 9.12e-6,0 H 612.00001 V 792 H 9.12e-6 Z" /></clipPath><clipPath
       id="clipPath734"
       clipPathUnits="userSpaceOnUse"><path
         style="clip-rule:evenodd"
         id="path732"
         d="M 9.12e-6,0 H 612.00001 V 792 H 9.12e-6 Z" /></clipPath><clipPath
       id="clipPath746"
       clipPathUnits="userSpaceOnUse"><path
         style="clip-rule:evenodd"
         id="path744"
         d="M 9.12e-6,0 H 612.00001 V 792 H 9.12e-6 Z" /></clipPath></defs><g
     transform="matrix(1.3333333,0,0,-1.3333333,0,1056)"
     id="g10"><g
       id="g12"><g
         clip-path="url(#clipPath18)"
         id="g14"><text
           id="text22"
           style="font-variant:normal;font-weight:normal;font-size:12px;font-family:TimesNewRomanPSMT;-inkscape-font-specification:TimesNewRomanPSMT;writing-mode:lr-tb;fill:#000000;fill-opacity:1;fill-rule:nonzero;stroke:none"
           transform="matrix(1,0,0,-1,275.93,709.06)"><tspan
             id="tspan20"
             y="0"
             x="0 3.8399999 6.948 14.148 20.148001 26.256001 31.535999 34.535999 41.136002 47.136002 53.136002 56.472 62.604 67.884003 71.220001">I Love Football</tspan></text>
</g></g><g
       id="g24"><g
         clip-path="url(#clipPath30)"
         id="g26" /></g><g
       id="g32"><g
         clip-path="url(#clipPath38)"
         id="g34" /></g><g
       id="g40"><g
         clip-path="url(#clipPath46)"
         id="g42"><text
           id="text50"
           style="font-variant:normal;font-weight:normal;font-size:12px;font-family:TimesNewRomanPSMT;-inkscape-font-specification:TimesNewRomanPSMT;writing-mode:lr-tb;fill:#000000;fill-opacity:1;fill-rule:nonzero;stroke:none"
           transform="matrix(1,0,0,-1,72.024,681.46)"><tspan
             id="tspan48"
             y="0"
             x="0 8.1479998 13.908 16.908001 21.695999 25.032 34.403999 37.403999 45.324001 50.604 53.939999 59.268002 65.267998 68.603996 71.940002 77.940002">By Jim Balentine</tspan></text>
</g></g><g
       id="g52"><g
         clip-path="url(#clipPath58)"
         id="g54" /></g><g
       id="g60"><g
         clip-path="url(#clipPath66)"
         id="g62" /></g><g
       id="g68"><g
         clip-path="url(#clipPath74)"
         id="g70"><text
           id="text78"
           style="font-variant:normal;font-weight:normal;font-size:12px;font-family:TimesNewRomanPSMT;-inkscape-font-specification:TimesNewRomanPSMT;writing-mode:lr-tb;fill:#000000;fill-opacity:1;fill-rule:nonzero;stroke:none"
           transform="matrix(1,0,0,-1,72.024,653.86)"><tspan
             id="tspan76"
             y="0"
             x="0 3.8399999 6.8400002 10.176 16.176001 22.176001 27.504 30.587999 34.584 40.584 46.584 49.919998 55.919998 61.188 64.524002 67.896004 70.896004 74.003998 77.844002 81.839996 87.912003 93.192001 96.192001 101.472 104.808 113.472 118.86 124.62 129.408 132.408 135.744 141.744 147.744 153.07201 159.07201 162.07201 166.008 172.008 178.008 181.34399 187.476 192.756 196.092 199.464 202.464 205.464 210.744 215.412 218.412 221.748 227.748 233.748 239.772 242.772 248.052 252.72 255.84 259.67999 262.67999 267.95999 273.23999 279.23999 282.34799 286.34399 291.58801 300.92401 306.25201 315.58801 321.58801 326.97601 330.97198 333.97198 336.97198 347.84399 353.604 356.604 360.672 365.952 375.28799 378.66 382.12799 387.888 390.888 399.552 404.80801 409.47601 412.59601 417.87601 420.87601 424.87201 430.87201 436.87201 440.20801 446.20801 451.47601 454.81201 458.18399">I love football. I’ve always loved football, as long as I can remember. My family was a football </tspan></text>
</g></g><g
       id="g80"><g
         clip-path="url(#clipPath86)"
         id="g82"><text
           id="text90"
           style="font-variant:normal;font-weight:normal;font-size:12px;font-family:TimesNewRomanPSMT;-inkscape-font-specification:TimesNewRomanPSMT;writing-mode:lr-tb;fill:#000000;fill-opacity:1;fill-rule:nonzero;stroke:none"
           transform="matrix(1,0,0,-1,72.024,640.06)"><tspan
             id="tspan88"
             y="0"
             x="0 3.9960001 9.2399998 18.576 21.948 25.416 31.176001 34.175999 37.175999 43.175999 49.175999 52.512001 55.512001 61.512001 66.839996 70.176003 73.512001 79.512001 84.924004 88.919998 91.919998 97.919998 101.844 104.844 114.432 120.312 123.312 129.312 134.592 138.588 143.832 149.832 153.168 157.836 160.836 169.5 174.79201 179.46001 182.58 187.86 193.86 199.14 203.136 206.20799 211.48801 214.48801 220.48801 224.48399 230.48399 234.51601 239.90401 244.57201 249.24001 252.612 258.612 264.612 269.892 273.228 276.228 279.228 286.56 292.56 297.95999 303.72 306.72 310.056 316.056 320.724 324.108 327.108 330.444 336.444 342.444 347.772 353.772 356.772 360.216 363.552 366.552 369.552 372.92401 376.26001 382.26001 387.58801 390.58801 399.92401 405.20401 408.20401 411.20401 422.59201 427.87201 430.87201 436.87201 441.54001 446.832 452.832 455.832 459.168 465.168">family, but neither of my parents was ever a professional. They just loved it, like me. We used to </tspan></text>
</g></g><g
       id="g92"><g
         clip-path="url(#clipPath98)"
         id="g94"><text
           id="text102"
           style="font-variant:normal;font-weight:normal;font-size:12px;font-family:TimesNewRomanPSMT;-inkscape-font-specification:TimesNewRomanPSMT;writing-mode:lr-tb;fill:#000000;fill-opacity:1;fill-rule:nonzero;stroke:none"
           transform="matrix(1,0,0,-1,72.024,626.26)"><tspan
             id="tspan100"
             y="0"
             x="0 6 9.3360004 14.748 20.507999 23.507999 26.844 30.216 33.216 39.216 45.216 48.216 51.551998 57.551998 63.683998 69.564003 72.564003 75.900002 79.896004 83.232002 89.232002 93.900002 96.900002 99.900002 105.228">play it on long trips, an</tspan></text>
</g></g><g
       id="g104"><g
         clip-path="url(#clipPath110)"
         id="g106"><text
           id="text114"
           style="font-variant:normal;font-weight:normal;font-size:12px;font-family:TimesNewRomanPSMT;-inkscape-font-specification:TimesNewRomanPSMT;writing-mode:lr-tb;fill:#000000;fill-opacity:1;fill-rule:nonzero;stroke:none"
           transform="matrix(1,0,0,-1,183.26,626.26)"><tspan
             id="tspan112"
             y="0"
             x="0 6 9.1079998 15.108 21.108 26.388 29.388 35.388 39.383999 42.383999 51.936001 57.695999 60.695999 65.975998 71.363998 75.360001 78.695999 82.031998 87.323997 91.991997 95.328003 98.328003 107.712 112.992 122.328 128.328 132.32401 135.66 140.952 145.62 148.62 151.95599 156.66 159.66 165.66 169.65601 172.65601 181.25999 187.25999 193.25999 199.25999 204.53999 208.536 211.87199 217.968 223.84801 226.84801 232.84801 238.84801 247.51199 250.59599 256.35599 262.46399 268.46399 271.46399 276.74399 282.74399 288.74399 292.07999 298.07999 301.07999 304.452 309.84 315.12 319.116 325.116 328.116 331.452 337.452">d one of my earliest memories is of wondering how you could learn to </tspan></text>
</g></g><g
       id="g116"><g
         clip-path="url(#clipPath122)"
         id="g118"><text
           id="text126"
           style="font-variant:normal;font-weight:normal;font-size:12px;font-family:TimesNewRomanPSMT;-inkscape-font-specification:TimesNewRomanPSMT;writing-mode:lr-tb;fill:#000000;fill-opacity:1;fill-rule:nonzero;stroke:none"
           transform="matrix(1,0,0,-1,72.024,612.46)"><tspan
             id="tspan124"
             y="0"
             x="0 5.2800002 11.28 17.280001 21.275999 27.275999 30.612 36.612 41.880001 45.216 50.543999 53.543999 62.16 68.267998 73.547997 76.884003 80.015999 85.776001 91.776001 97.776001 100.776 106.776 110.112 116.112 119.244 127.908 131.244 134.58 140.58 143.58 152.244 158.244 163.524 166.86 169.86 175.188 181.188 186.444 190.632 196.392 202.392 208.392 214.62 220.38 223.48801 228.76801 232.104 236.772 242.10001 245.10001 251.10001 254.436 260.436 263.436 266.436 270.43201 273.76801 279.64801 285.64801 288.98401 291.98401 297.98401 303.98401 306.98401 310.35599 316.35599 321.63599 324.63599 329.30399 335.30399 341.30399 345.29999 348.29999 354.384 358.452 361.452 364.78799 370.78799 376.116 379.116 388.452 394.452 403.78799 409.116 415.116 418.452 421.452 424.452 429.73199 435.73199 441.73199 444.73199 454.06799 459.396 465.396 470.65201 473.65201 476.98801 480.35999">coordinate what you did with what everybody else did, right on the spur of the moment, and make it </tspan></text>
</g></g><g
       id="g128"><g
         clip-path="url(#clipPath134)"
         id="g130"><text
           id="text138"
           style="font-variant:normal;font-weight:normal;font-size:12px;font-family:TimesNewRomanPSMT;-inkscape-font-specification:TimesNewRomanPSMT;writing-mode:lr-tb;fill:#000000;fill-opacity:1;fill-rule:nonzero;stroke:none"
           transform="matrix(1,0,0,-1,72.024,598.66)"><tspan
             id="tspan136"
             y="0"
             x="0 8.6639996 14.664 18.6 24.6">work.</tspan></text>
</g></g><g
       id="g140"><g
         clip-path="url(#clipPath146)"
         id="g142" /></g><g
       id="g148"><g
         clip-path="url(#clipPath154)"
         id="g150" /></g><g
       id="g156"><g
         clip-path="url(#clipPath162)"
         id="g158"><text
           id="text166"
           style="font-variant:normal;font-weight:normal;font-size:12px;font-family:TimesNewRomanPSMT;-inkscape-font-specification:TimesNewRomanPSMT;writing-mode:lr-tb;fill:#000000;fill-opacity:1;fill-rule:nonzero;stroke:none"
           transform="matrix(1,0,0,-1,72.024,571.06)"><tspan
             id="tspan164"
             y="0"
             x="0 3.8399999 6.948 15.612 20.868 25.535999 28.535999 31.872 37.872002 43.200001 46.200001 50.868 56.256001 61.535999 67.536003 73.536003 79.536003 82.536003 88.536003 94.764 100.524 103.524 109.524 113.52 116.52 120.552 126.552 132.552 136.548 139.548 142.548 147.79201 153.79201 159.79201 162.79201 171.45599 177.45599 182.71201 188.71201 191.71201 201.3 207.06 210.06 216.06 219.396 225.396 230.808 234.804 237.87601 243.87601 247.87199 253.87199 257.20801 263.20801 268.47601 272.47198 275.47198 282.75601 288.75601 294.98401 300.74399 303.74399 312.492 317.772 322.44 325.44 328.776 337.44 342.73199 346.06799 352.06799 357.396 360.48001 363.48001 369.48001 374.76001 377.76001 383.64001 389.64001 392.97601 395.97601">I was the second boy of four, and when my older brother Tony was twelve, he got t</tspan></text>
</g></g><g
       id="g168"><g
         clip-path="url(#clipPath174)"
         id="g170"><text
           id="text178"
           style="font-variant:normal;font-weight:normal;font-size:12px;font-family:TimesNewRomanPSMT;-inkscape-font-specification:TimesNewRomanPSMT;writing-mode:lr-tb;fill:#000000;fill-opacity:1;fill-rule:nonzero;stroke:none"
           transform="matrix(1,0,0,-1,471.58,571.06)"><tspan
             id="tspan176"
             y="0"
             x="0 6 9 15 18.336 23.664 29.664 32.664001 41.279999 47.388 52.667999 56.004002">o pick what </tspan></text>
</g></g><g
       id="g180"><g
         clip-path="url(#clipPath186)"
         id="g182"><text
           id="text190"
           style="font-variant:normal;font-weight:normal;font-size:12px;font-family:TimesNewRomanPSMT;-inkscape-font-specification:TimesNewRomanPSMT;writing-mode:lr-tb;fill:#000000;fill-opacity:1;fill-rule:nonzero;stroke:none"
           transform="matrix(1,0,0,-1,72.024,557.26)"><tspan
             id="tspan188"
             y="0"
             x="0 6 12 16.667999 20.028 23.364 26.736 32.736 38.736 41.736 47.736 53.015999 56.015999 64.68 69.935997 75.935997 79.272003 84.599998 90.599998 93.599998 96.935997 102.936 105.936 111.936 115.272 120.6 126.336 129.444 132.78 138.78 141.78 145.15199 151.15199 157.15199 160.48801 166.48801 170.48399 173.48399 179.48399 182.82001 188.71201 194.71201 197.71201 202.5 207.78 213.78 219.78 225.78 229.116 232.116 235.116 240.528 246.528 252.528 255.528 261.52802 266.80801 269.80801 275.68799 281.68799 285.02399 288.02399 294.15601 298.15201 303.396 306.73199 310.224 315.98401 319.09201 324.97198 330.97198 336.97198 342.97198 345.97198 352.07999 356.07599 361.42801 364.76401 368.25601 374.01599 377.01599 383.01599 389.01599 392.35199 397.67999 403.67999 406.67999 409.67999 418.29599 421.63199 426.29999 429.29999 435.29999 440.62799 445.29599 448.63199 451.63199 455.62799 459.57599 463.04401 468.32401 474.32401 480.32401">position he wanted to play in junior high school, and he got pretty good pretty quick. His best friend </tspan></text>
</g></g><g
       id="g192"><g
         clip-path="url(#clipPath198)"
         id="g194"><text
           id="text202"
           style="font-variant:normal;font-weight:normal;font-size:12px;font-family:TimesNewRomanPSMT;-inkscape-font-specification:TimesNewRomanPSMT;writing-mode:lr-tb;fill:#000000;fill-opacity:1;fill-rule:nonzero;stroke:none"
           transform="matrix(1,0,0,-1,72.024,543.43)"><tspan
             id="tspan200"
             y="0"
             x="0 10.668 14.004 20.004 25.332001 28.332001 36.959999 42.240002 46.908001 49.908001 53.903999 59.268002 64.547997 67.884003 71.375999 77.136002 80.244003 86.124001 92.124001 98.124001 104.124 107.124 110.232 115.512 121.62 127.62 130.62 133.95599 139.95599 145.368 151.12801 154.12801 162.79201 168.79201 174.79201 178.12801 184.12801 187.23599 192.51601 195.85201 204.51601 210.024 215.784 220.452 223.452 226.78799 232.116 235.452 241.57201 244.57201 249.85201 255.85201 261.85199 267.85199 271.18799 274.18799 282.85199 288.13199 294.13199 297.46799 300.84 306.84 312.72 315.72 319.056 325.056 328.056 334.18799 339.46799 342.46799 348.46799 352.46399 358.46399 362.496 367.776 372.444 377.112 380.48401 386.48401 392.48401 397.76401 401.10001 404.10001 408.09601 414.09601 420.09601 423.43201 429.43201 434.76001 438.09601 441.43201 444.43201 450.43201 453.79199 459.17999 464.94 470.328 474.32401 478.992">Mike was really good, and they would always talk about wanting to be professional football players </tspan></text>
</g></g><g
       id="g204"><g
         clip-path="url(#clipPath210)"
         id="g206"><text
           id="text214"
           style="font-variant:normal;font-weight:normal;font-size:12px;font-family:TimesNewRomanPSMT;-inkscape-font-specification:TimesNewRomanPSMT;writing-mode:lr-tb;fill:#000000;fill-opacity:1;fill-rule:nonzero;stroke:none"
           transform="matrix(1,0,0,-1,72.024,529.63)"><tspan
             id="tspan212"
             y="0"
             x="0 8.6639996 14.664 19.92 25.92 28.92 32.256001 38.256001 43.787998 49.548 52.655998 58.535999 64.536003 67.872002 70.872002 76.872002 80.244003 86.244003 91.524002 95.519997 98.519997">when they got older. </tspan></text>
</g></g><g
       id="g216"><g
         clip-path="url(#clipPath222)"
         id="g218" /></g><g
       id="g224"><g
         clip-path="url(#clipPath230)"
         id="g226" /></g><g
       id="g232"><g
         clip-path="url(#clipPath238)"
         id="g234"><text
           id="text242"
           style="font-variant:normal;font-weight:normal;font-size:12px;font-family:TimesNewRomanPSMT;-inkscape-font-specification:TimesNewRomanPSMT;writing-mode:lr-tb;fill:#000000;fill-opacity:1;fill-rule:nonzero;stroke:none"
           transform="matrix(1,0,0,-1,72.024,502.03)"><tspan
             id="tspan240"
             y="0"
             x="0 6.7080002 12.708 15.708 19.044001 22.416 25.416 34.080002 39.335999 44.004002 47.004002 53.004002 59.004002 65.003998 68.363998 74.363998 80.363998 85.031998 88.031998">So it was obvious t</tspan></text>
</g></g><g
       id="g244"><g
         clip-path="url(#clipPath250)"
         id="g246"><text
           id="text254"
           style="font-variant:normal;font-weight:normal;font-size:12px;font-family:TimesNewRomanPSMT;-inkscape-font-specification:TimesNewRomanPSMT;writing-mode:lr-tb;fill:#000000;fill-opacity:1;fill-rule:nonzero;stroke:none"
           transform="matrix(1,0,0,-1,163.46,502.03)"><tspan
             id="tspan252"
             y="0"
             x="0 6 9 18.336 23.664 26.664 29.879999 35.880001 41.16 44.495998 47.495998 56.16 62.16 67.440002 73.440002 76.547997 80.388 83.496002 89.375999 95.375999 98.711998 101.712 105.084 111.084 114.084 120.084 125.364 128.364 131.7 140.364 145.644 149.112 155.112 160.392 163.392 166.5 170.34 173.34 182.004 188.004 194.004 197.34 203.34 206.448 212.328 217.608 220.944 223.944 227.31599 233.31599 236.31599 242.31599 245.65199 250.98 256.98001 259.98001 268.70401 274.70401 279.98401 283.32001 286.32001 292.32001 298.32001 302.98801 306.37201 309.70801 313.07999 319.07999 325.07999 328.18799 331.90799 334.90799 343.57199 348.828 354.828 358.29599 363.57599 369.57599 372.57599 375.91199 381.91199">o me that when I got to be twelve, I would get to pick what position I wanted to </tspan></text>
</g></g><g
       id="g256"><g
         clip-path="url(#clipPath262)"
         id="g258"><text
           id="text266"
           style="font-variant:normal;font-weight:normal;font-size:12px;font-family:TimesNewRomanPSMT;-inkscape-font-specification:TimesNewRomanPSMT;writing-mode:lr-tb;fill:#000000;fill-opacity:1;fill-rule:nonzero;stroke:none"
           transform="matrix(1,0,0,-1,72.024,488.23)"><tspan
             id="tspan264"
             y="0"
             x="0 6 9.3360004 14.748 20.507999 23.507999 26.844 32.844002 38.844002 41.844002 44.976002 48.816002 51.924 60.588001 65.844002 70.512001 76.512001 80.508003 83.844002 86.844002 91.512001 97.512001 101.592 106.872 109.872 112.872 117.54 123.54 126.66 130.38 133.48801 142.15199 147.408 153.408 156.744 159.744 168.408 171.744 175.116 181.116 184.116 190.116 196.116 201.396 204.396 207.73199 213.73199 219.06 222.396 225.396 234.06 239.424 244.092 247.092 253.092 256.452 260.448 264.37201 269.65201 273.64801 278.892 284.892 288.228 291.228 295.32001 299.31601 305.31601 314.65201 317.65201 324.98401 330.98401 337.18799 342.948 346.944 351.612 354.612 357.69601 362.97601 368.97601 374.97601 377.97601 383.25601 387.92401 390.92401 395.59201 401.59201 407.59201 413.59201 416.59201 421.92001 426.58801 429.68399 433.52399 436.52399 441.19199 444.52802 449.952 453.948 457.284 462.552 468.552 471.552 474.66 478.65601">play too. I wasn’t sure, so I went with one that was different from Tony’s, and as soon as I started, I </tspan></text>
</g></g><g
       id="g268"><g
         clip-path="url(#clipPath274)"
         id="g270"><text
           id="text278"
           style="font-variant:normal;font-weight:normal;font-size:12px;font-family:TimesNewRomanPSMT;-inkscape-font-specification:TimesNewRomanPSMT;writing-mode:lr-tb;fill:#000000;fill-opacity:1;fill-rule:nonzero;stroke:none"
           transform="matrix(1,0,0,-1,72.024,474.43)"><tspan
             id="tspan276"
             y="0"
             x="0 6 9.9960003 15.24 20.52 23.856001 27.228001 32.507999 37.787998 43.787998 46.896 52.175999 55.175999 58.512001 64.512001 67.884003 70.884003 73.884003 82.547997 85.884003 88.884003 92.844002 96.18 100.176 104.844 108.18 111.18 114.18 117.552 123.552 126.552 129.888 135.888 141.888 145.25999 151.25999 155.256 158.256 164.256 167.592 173.46001 179.46001 182.46001 185.56799 189.408 192.408 201.15601 206.436 211.104 214.104 218.772 224.10001 229.356 235.464 241.464 247.464 250.464 256.46399 261.74399 266.41199 269.74799 273.13199 276.13199 285.60001 291.35999 294.35999 298.35599 302.28 305.616 310.944 316.944">practiced a lot. At first, in junior high, I was second best; my friend</tspan></text>
</g></g><g
       id="g280"><g
         clip-path="url(#clipPath286)"
         id="g282" /></g><g
       id="g288"><g
         clip-path="url(#clipPath294)"
         id="g290"><text
           id="text298"
           style="font-variant:normal;font-weight:normal;font-size:12px;font-family:TimesNewRomanPSMT;-inkscape-font-specification:TimesNewRomanPSMT;writing-mode:lr-tb;fill:#000000;fill-opacity:1;fill-rule:nonzero;stroke:none"
           transform="matrix(1,0,0,-1,398.11,474.43)"><tspan
             id="tspan296"
             y="0"
             x="0 6.7080002 11.988 17.988001 21.323999 24.695999 27.804001 36.467999 41.723999 46.391998 49.391998 54.683998 57.911999 63.672001 69.059998 74.339996 78.335999 81.335999 87.335999 90.671997 96.671997 101.94 105.936 108.936 112.272 118.368 123.648 129.64799 132.64799 141.98399 147.312">Scott was a year older than me </tspan></text>
</g></g><g
       id="g300"><g
         clip-path="url(#clipPath306)"
         id="g302"><text
           id="text310"
           style="font-variant:normal;font-weight:normal;font-size:12px;font-family:TimesNewRomanPSMT;-inkscape-font-specification:TimesNewRomanPSMT;writing-mode:lr-tb;fill:#000000;fill-opacity:1;fill-rule:nonzero;stroke:none"
           transform="matrix(1,0,0,-1,72.024,460.63)"><tspan
             id="tspan308"
             y="0"
             x="0 5.2800002 11.28 17.280001 20.280001 28.944 34.200001 37.200001 45.863998 51.863998 57.863998 61.200001 67.199997 70.199997 74.867996 80.867996 90.227997 95.508003 98.844002 102.216 111.552 116.88 121.644 124.644 130.644 133.98 139.392 145.15199 148.15199 152.14799 158.14799 164.14799 167.48399 173.58 178.86 182.196 185.56799 188.56799 191.56799 194.90401 200.90401 205.57201 208.95599 211.95599 215.29201 221.29201 226.62 229.62 232.95599 241.62 247.62 250.62 256.62 260.556 263.556 269.556 274.224 277.224 280.224 285.51599 291.51599 297.51599 300.62399 304.46399 307.46399 310.79999 316.79999 322.79999 328.12799 334.12799 337.12799 340.46399 346.46399 351.74399 354.85199 363.60001 368.98801 374.74799 377.74799 381.08401 387.216 392.496 395.496 401.496 404.832 410.36401 416.12399 420.79199 423.79199 432.45599 438.45599 442.40399 448.51199 453.79199 459.79199 462.79199 468.79199 474.79199 480.07199">and we would sometimes play football, just the two of us, and I loved the way the plays worked one </tspan></text>
</g></g><g
       id="g312"><g
         clip-path="url(#clipPath318)"
         id="g314"><text
           id="text322"
           style="font-variant:normal;font-weight:normal;font-size:12px;font-family:TimesNewRomanPSMT;-inkscape-font-specification:TimesNewRomanPSMT;writing-mode:lr-tb;fill:#000000;fill-opacity:1;fill-rule:nonzero;stroke:none"
           transform="matrix(1,0,0,-1,72.024,446.83)"><tspan
             id="tspan320"
             y="0"
             x="0 5.2800002 9.276 12.612 17.879999 21.875999 24.875999 28.212 34.212002 39.48 42.48 48.48 51.816002 57.948002 63.228001 67.223999 70.223999 73.223999 78.468002 84.468002 90.468002 93.468002 96.804001 102.804 108.132 111.216 119.964 125.352 131.112 134.112 140.112 143.448 147.53999 151.536 156.78 160.84801 166.12801 172.12801 175.464 178.464 184.464 190.464 195.15601 198.492 201.864 205.2 211.2 217.2 221.868 224.868 230.892 234.228 240.228 243.228 249.228 252.60001 256.59601 260.51999 265.79999 269.79599 275.04001 281.04001 284.37601 287.37601 290.74799 296.74799 300.08401 306.216 312.09601 316.76401 319.76401 322.76401 328.056 334.056 340.056 343.056 351.72 357.80399 363.08401 369.08401 372.08401 375.42001 378.79199 381.79199 387.07199 390.40799 393.78 396.78 405.444 411.444 415.38 421.38 426.66 432.66 435.66 439.65601 443.08801 448.96799 454.96799 458.30399 461.30399 464.30399 467.67599 471.01199">after the other, and the way different positions did different things, and when it all worked right, it </tspan></text>
</g></g><g
       id="g324"><g
         clip-path="url(#clipPath330)"
         id="g326"><text
           id="text334"
           style="font-variant:normal;font-weight:normal;font-size:12px;font-family:TimesNewRomanPSMT;-inkscape-font-specification:TimesNewRomanPSMT;writing-mode:lr-tb;fill:#000000;fill-opacity:1;fill-rule:nonzero;stroke:none"
           transform="matrix(1,0,0,-1,72.024,433.03)"><tspan
             id="tspan332"
             y="0"
             x="0 8.6639996 13.92 18.587999 21.587999 24.924 28.308001 34.307999 39.588001 42.588001 48.588001 54.588001 57.924 63.924 67.295998 73.295998 79.176003 82.176003 87.456001 90.792 95.603996">was like nothing else</tspan></text>
</g></g><g
       id="g336"><g
         clip-path="url(#clipPath342)"
         id="g338" /></g><g
       id="g344"><g
         clip-path="url(#clipPath350)"
         id="g346"><text
           id="text354"
           style="font-variant:normal;font-weight:normal;font-size:12px;font-family:TimesNewRomanPSMT;-inkscape-font-specification:TimesNewRomanPSMT;writing-mode:lr-tb;fill:#000000;fill-opacity:1;fill-rule:nonzero;stroke:none"
           transform="matrix(1,0,0,-1,176.06,433.03)"><tspan
             id="tspan352"
             y="0"
             x="0 3.8399999 6.8400002 12.12 18.228001 24.228001 27.563999 33.563999 36.563999 41.891998 47.891998 53.147999 59.147999 62.147999 65.484001 74.856003 80.244003 86.124001 89.459999 95.459999 100.788 103.788 106.872 110.712 113.712 122.46 127.74 132.408 135.408 140.076 145.40401 150.66 154.65601 159.89999 165.89999 168.89999 172.23599 178.368 183.64799 186.64799 190.644 193.98 197.92799 202.59599 205.93201 208.93201 212.31599 215.65199 225.024 230.304 233.304 236.64 242.64 247.968 250.968 259.69199 265.69199 271.69199 275.02802 280.35599 283.35599 286.69199 291.97198 297.25201 306.58801 309.58801 315.58801 318.95999 324.46799 330.228 335.508 341.508 344.508 347.84399 353.84399">I could even imagine. I was scared the first time the whole team played in </tspan></text>
</g></g><g
       id="g356"><g
         clip-path="url(#clipPath362)"
         id="g358"><text
           id="text366"
           style="font-variant:normal;font-weight:normal;font-size:12px;font-family:TimesNewRomanPSMT;-inkscape-font-specification:TimesNewRomanPSMT;writing-mode:lr-tb;fill:#000000;fill-opacity:1;fill-rule:nonzero;stroke:none"
           transform="matrix(1,0,0,-1,72.024,419.23)"><tspan
             id="tspan364"
             y="0"
             x="0 3.9960001 7.9200001 13.92 19.92 23.256001 26.256001 32.256001 36.251999 39.251999 44.52 50.52 55.908001 60.096001 65.856003 71.856003 77.856003 84.084 89.844002 93.18 96.18 106.848 112.848 122.232 125.232 130.51199 136.51199 142.51199 145.51199 154.17599 159.43201 165.43201 168.43201 177.17999 182.46001 186.45599 191.7 194.7 198.036 204.036 209.448 213.444 218.688 221.688 224.688 232.02 238.02 244.116 249.87601 252.98399 255.98399 261.26401 267.26401 273.26401 276.492 280.332 283.332 287.328 292.57199 295.90799 299.28 302.28 305.616 308.98801 314.98801 320.26801 323.26801 328.548 334.65601 339.936 344.12399 349.884 355.884 361.992 368.10001 373.85999 376.85999 385.608 390.888 395.556 398.556 401.892 407.892 413.892 419.91599 423.25201 429.25201 435.15601 438.15601 442.15201 445.58401 451.46399 457.46399 460.79999 463.79999 469.12799 472.46399">front of everybody; Mom and Dad were there, Tony, and I felt like everybody was looking right at </tspan></text>
</g></g><g
       id="g368"><g
         clip-path="url(#clipPath374)"
         id="g370"><text
           id="text378"
           style="font-variant:normal;font-weight:normal;font-size:12px;font-family:TimesNewRomanPSMT;-inkscape-font-specification:TimesNewRomanPSMT;writing-mode:lr-tb;fill:#000000;fill-opacity:1;fill-rule:nonzero;stroke:none"
           transform="matrix(1,0,0,-1,72.024,405.43)"><tspan
             id="tspan376"
             y="0"
             x="0 9.3360004 14.664 17.664 20.747999 24.468 27.468 33.576 38.855999 44.855999 50.243999 54.240002 57.312 63.192001 69.192001 72.528 75.528 78.900002 84.900002 87.900002 93.18 98.459999 102.528 106.716 112.476 115.476 118.812 124.812 130.14 133.14 139.14 144.396 147.73199 151.104 154.104 157.104 163.104 169.104 172.44 175.57201 179.29201 182.39999 191.064 196.32001 200.98801 203.98801 209.98801 215.388 219.384 222.72 225.72 231.72 235.668 238.776 242.112 248.112 253.44 256.44 259.776 265.056 270.336 279.672 282.672 285.672 291 297 303 306.08401 309.92401 312.92401 316.26001 322.26001 326.92801 330.31201 333.31201 336.64801 342.64801 348.64801 353.97601 360.06 363.06 366.396 369.76801">me. I never got to carry the ball, but I was part of the team, and I just loved it.</tspan></text>
</g></g><g
       id="g380"><g
         clip-path="url(#clipPath386)"
         id="g382" /></g><g
       id="g388"><g
         clip-path="url(#clipPath394)"
         id="g390" /></g><g
       id="g396"><g
         clip-path="url(#clipPath402)"
         id="g398"><text
           id="text406"
           style="font-variant:normal;font-weight:normal;font-size:12px;font-family:TimesNewRomanPSMT;-inkscape-font-specification:TimesNewRomanPSMT;writing-mode:lr-tb;fill:#000000;fill-opacity:1;fill-rule:nonzero;stroke:none"
           transform="matrix(1,0,0,-1,72.024,377.81)"><tspan
             id="tspan404"
             y="0"
             x="0 6.7080002 11.988 17.988001 23.988001 29.988001 33.324001 36.324001 41.015999 46.296001 51.576 55.571999 60.816002 66.816002 69.816002 79.152 84.480003 87.480003 90.564003 97.164001 103.164 107.16 110.16 113.496 119.592 124.872 127.872 131.868 135.20399 139.15199 143.82001 147.15601 150.15601 153.53999 159.53999 163.536 168.78 174.06 177.06 183.168 187.164 190.164 194.088 200.088 206.088 210.084 213.15601 219.15601 223.15199 228.396 234.396 239.784 244.452 247.452 250.57201 254.29201 257.29199 265.95599 271.95599 277.95599 281.29199 287.29199 290.29199 293.62799 299.62799 303.62399 309.72 318.384 321.384 327.384 333.384 336.384 339.72 345.72 351 354 357.996 361.42801 365.42401 370.09201 373.42801 376.42801 382.42801 387.81601 393.57599 396.57599 402.68399 406.67999 409.67999 414.34799 419.604 425.604 431.604 437.604 440.94 443.94 447.07199 450.91199 453.91199 459.91199 465.91199 471.91199 475.87201 479.20801">School scared me. For the first three or four grades, I would throw up the first day of school. I don’t </tspan></text>
</g></g><g
       id="g408"><g
         clip-path="url(#clipPath414)"
         id="g410"><text
           id="text418"
           style="font-variant:normal;font-weight:normal;font-size:12px;font-family:TimesNewRomanPSMT;-inkscape-font-specification:TimesNewRomanPSMT;writing-mode:lr-tb;fill:#000000;fill-opacity:1;fill-rule:nonzero;stroke:none"
           transform="matrix(1,0,0,-1,72.024,364.01)"><tspan
             id="tspan416"
             y="0"
             x="0 6 12 18 26.664 29.664 38.279999 44.388 50.147999 53.147999 56.375999 60.216 63.216 71.879997 77.136002 81.804001 84.804001 88.139999 94.139999 98.844002 102.18 105.18 111.18 116.508 120.552 126.552 132.552 138.552 143.22 146.22 149.34 153.06 156.168 162.048 168.15601 173.436 178.104 182.772 185.772 188.772 196.716 202.716 206.052 209.052 213.144 217.14 223.14 232.476 235.476 238.812 244.812 250.812 254.172 260.172 264.168 267.168 273.168 276.504 282.37201 288.37201 291.37201 297.37201 303.37201 306.37201 309.37201 315.37201 320.65201 323.98801 330.12 336 339 344.28 347.28 356.74799 362.02802 371.36401 377.36401 382.69199 386.62799 389.62799 395.62799 399.62399 402.62399 405.95999 411.95999 417.228 420.336 424.332 430.332 436.332 439.668 445.668 450.936 454.272 457.64401">know why. I was just nervous, I guess. But from junior high on, being a member of the football </tspan></text>
</g></g><g
       id="g420"><g
         clip-path="url(#clipPath426)"
         id="g422"><text
           id="text430"
           style="font-variant:normal;font-weight:normal;font-size:12px;font-family:TimesNewRomanPSMT;-inkscape-font-specification:TimesNewRomanPSMT;writing-mode:lr-tb;fill:#000000;fill-opacity:1;fill-rule:nonzero;stroke:none"
           transform="matrix(1,0,0,-1,72.024,350.21)"><tspan
             id="tspan428"
             y="0"
             x="0 3.336 8.6639996 13.92 23.256001 26.256001 34.919998 40.200001 44.868 47.868 56.532001 62.532001 67.800003 71.136002 74.388 78.227997 81.227997 84.564003 90.564003 96.564003 102.564 107.892 113.892 116.892 120.936 126.936 130.93201 139.536 144.81599 148.812 154.812 157.812 161.14799 167.14799 170.14799 173.14799 178.416 184.416 190.416 193.644 197.48399 200.48399 203.82001 209.82001 215.82001 221.952 227.832 233.832 237.168 240.168 244.032 247.14 255.804 261.06 265.728">team was what I looked forward to, and I thought I was </tspan></text>
</g></g><g
       id="g432"><g
         clip-path="url(#clipPath438)"
         id="g434"><text
           id="text442"
           style="font-variant:normal;font-weight:normal;font-size:12px;font-family:TimesNewRomanPSMT;-inkscape-font-specification:TimesNewRomanPSMT;writing-mode:lr-tb;fill:#000000;fill-opacity:1;fill-rule:nonzero;stroke:none"
           transform="matrix(1,0,0,-1,340.87,350.21)"><tspan
             id="tspan440"
             y="0"
             x="0 6 10.068 15.348 18.684 22.176001 27.936001 31.044001 36.924 42.924 48.924 54.924 58.032001 63.312 66.648003 69.648003 73.019997 76.356003 79.356003 82.356003 90.407997 95.688004 99.683998 105.684 109.608 114.888 117.888 121.224 127.356 132.636 135.636 141.636 144.972 150.972 154.34399 160.34399 163.34399 169.224 173.29201 178.57201 184.57201 189.85201 192.85201 195.85201 205.44 211.32001">pretty good at it. Before the ninth grade, my </tspan></text>
</g></g><g
       id="g444"><g
         clip-path="url(#clipPath450)"
         id="g446"><text
           id="text454"
           style="font-variant:normal;font-weight:normal;font-size:12px;font-family:TimesNewRomanPSMT;-inkscape-font-specification:TimesNewRomanPSMT;writing-mode:lr-tb;fill:#000000;fill-opacity:1;fill-rule:nonzero;stroke:none"
           transform="matrix(1,0,0,-1,72.024,336.41)"><tspan
             id="tspan452"
             y="0"
             x="0 3.9960001 9.2399998 18.576 21.948 25.416 31.176001 34.175999 43.512001 49.512001 55.512001 60.84 66.839996 69.839996 73.176003 79.176003 82.176003 86.963997 92.244003 98.244003 103.524 109.524 112.524 115.524 120.912 126.912 132.912 136.02 139.74001 142.84801 151.51199 156.76801 162.76801 166.104 169.104 172.476 178.476 181.476 186.756 192.756 195.756 204.42 213.756 219.144 223.14 226.476 231.744 237.024 243.132 246.132 250.8 256.09201 262.09201 268.09201 274.09201 277.42801 280.42801 286.42801 291.75601 297.01199 301.008 304.008 311.39999 316.67999 321.95999 327.95999 331.29599 337.29599 342.62399 351.34799 356.62799 359.62799 362.73599 370.06799 376.06799 381.336 387.336 390.336 393.672 399.672 405.672 411.672 417.57599 423.57599 426.57599 429.91199 435.91199 441.23999 444.32401 448.32001 454.32001 460.32001 463.65601 469.65601 474.92401 478.26001 481.63199">family moved to Japan, and I went to an American school near Tachikawa. Even though the football </tspan></text>
</g></g><g
       id="g456"><g
         clip-path="url(#clipPath462)"
         id="g458"><text
           id="text466"
           style="font-variant:normal;font-weight:normal;font-size:12px;font-family:TimesNewRomanPSMT;-inkscape-font-specification:TimesNewRomanPSMT;writing-mode:lr-tb;fill:#000000;fill-opacity:1;fill-rule:nonzero;stroke:none"
           transform="matrix(1,0,0,-1,72.024,322.61)"><tspan
             id="tspan464"
             y="0"
             x="0 3.336 8.6639996 13.92 23.256001 26.256001 34.919998 40.200001 44.868 47.868 52.535999 61.908001 67.188004 70.524002 73.896004 76.896004 79.896004 83.232002 89.232002 94.764 100.524 103.524 108.192 111.528 114.912 118.248 121.62 124.62 130.62 135.89999 141.89999 144.89999 150.89999 156.89999 162.17999 165.17999 168.17999 173.46001 179.46001 185.46001 188.688 192.528 195.636 201.51601 207.51601 210.85201 213.85201 217.224 223.224 226.224 232.224 237.504 240.504 243.84 249.84 255.168 258.168 262.836 266.172 271.46399 275.45999 278.79599 284.064 288.06 291.13199 295.12799 301.12799 305.052 308.052 317.64001 323.39999 326.39999 332.39999 338.39999 343.06799 346.42801 349.76401 353.13599 359.13599 365.13599 368.13599 371.13599 379.79999 383.13599 389.13599 392.24399 395.96399 398.96399 402.29999 407.62799 410.96399 414.29999 417.552 423.31201 429.31201 435.31201 438.31201 446.97601 453.06 458.34 461.67599">team was small, they still had one, and I got to be the starter for my position. Did I tell you what </tspan></text>
</g></g><g
       id="g468"><g
         clip-path="url(#clipPath474)"
         id="g470"><text
           id="text478"
           style="font-variant:normal;font-weight:normal;font-size:12px;font-family:TimesNewRomanPSMT;-inkscape-font-specification:TimesNewRomanPSMT;writing-mode:lr-tb;fill:#000000;fill-opacity:1;fill-rule:nonzero;stroke:none"
           transform="matrix(1,0,0,-1,72.024,308.81)"><tspan
             id="tspan476"
             y="0"
             x="0 6 12 16.667999 20.028 23.364 26.736 32.736 38.736 41.736 45.071999 48.444">position it </tspan></text>
</g></g><g
       id="g480"><g
         clip-path="url(#clipPath486)"
         id="g482"><text
           id="text490"
           style="font-variant:normal;font-weight:normal;font-size:12px;font-family:TimesNewRomanPSMT;-inkscape-font-specification:TimesNewRomanPSMT;writing-mode:lr-tb;fill:#000000;fill-opacity:1;fill-rule:nonzero;stroke:none"
           transform="matrix(1,0,0,-1,123.5,308.81)"><tspan
             id="tspan488"
             y="0"
             x="0 8.6639996 13.92 18.48 23.988001 26.988001 30.708 33.708 42.456001 47.736 52.403999 55.403999 60.695999 63.695999 67.031998 70.524002 76.403999 82.403999 85.739998 88.739998 94.068001 100.068 106.068 109.068 112.068 120.684 126.684 130.02 133.15199 138.43201 141.43201 147.43201 151.42799 157.42799 166.76401 170.10001 176.10001 181.42799 187.392 190.86 193.86 199.86 205.14 209.136 212.472 215.472 218.472 224.472 230.472 233.808 236.808 240.168 243.504 249.504 254.832 258.276 264.03601 267.03601 270.37201 276.37201 279.37201 284.70001 290.784 296.064 300.06 303.06 308.41199 313.69199 317.68799 321.84 327.60001 330.60001 333.936 339.936 345.26401 348.26401 354.34799 359.62799 362.96399 366.336 369.336 375.336 379.332 382.332 391.668 396.936 402.936 408.216 411.216 416.496">was? I was a tight end. Not a prominent part, not likely to ever carry the ball or make a </tspan></text>
</g></g><g
       id="g492"><g
         clip-path="url(#clipPath498)"
         id="g494"><text
           id="text502"
           style="font-variant:normal;font-weight:normal;font-size:12px;font-family:TimesNewRomanPSMT;-inkscape-font-specification:TimesNewRomanPSMT;writing-mode:lr-tb;fill:#000000;fill-opacity:1;fill-rule:nonzero;stroke:none"
           transform="matrix(1,0,0,-1,72.024,295.01)"><tspan
             id="tspan500"
             y="0"
             x="0 3.336 9.3360004 15.336 20.664 26.664 32.664001 38.664001 47.279999 53.279999 56.279999 59.279999 65.279999 71.279999 74.615997 77.615997 82.944 86.279999 94.944 100.428 106.188 110.856 113.856 119.256 125.256 128.256 131.592 140.964 146.964 152.964 156.96001 160.29601 165.564 171.564 174.89999 177.89999 183.89999 189.89999 194.592 197.92799 201.3 204.636 210.636 216.636 219.636 222.636 226.38 229.38 232.716 238.84801 244.84801 250.84801 256.728 262.728 266.064 269.19601 273.03601 276.03601 284.784 290.064 294.73199 297.85199 303.73199 309.73199 315.73199 321.73199 324.73199 330.01199 333.34799 336.34799 339.72 343.056 346.056 349.056 355.056 360.46799 365.74799 371.02802 377.02802 381.69601 386.98801 390.09601 393.936 396.936 402.936 408.936 415.04401 420.32401 424.32001 428.98801 432.32401 438.32401 444.32401 450.32401 453.32401 456.66 460.03201">touchdown, but always an important position. I thought I was good at it, because I understood it </tspan></text>
</g></g><g
       id="g504"><g
         clip-path="url(#clipPath510)"
         id="g506"><text
           id="text514"
           style="font-variant:normal;font-weight:normal;font-size:12px;font-family:TimesNewRomanPSMT;-inkscape-font-specification:TimesNewRomanPSMT;writing-mode:lr-tb;fill:#000000;fill-opacity:1;fill-rule:nonzero;stroke:none"
           transform="matrix(1,0,0,-1,72.024,281.21)"><tspan
             id="tspan512"
             y="0"
             x="0 3.336 9.3360004 12.708 18.708 22.044001 25.416 28.752001 34.751999 40.080002 43.523998 49.164001 52.164001 55.271999 59.112 62.112 68.112 74.220001 79.5 88.164001 91.164001 99.779999 105.888 111.168 114.504 117.504 126.876 132.15601 138.15601 143.436 146.436 149.772 155.772 161.10001 164.10001 170.10001 173.436 178.944 184.70399 189.37199 192.37199 201.036 207.036 210.98399 216.98399 219.98399 222.98399 226.32001 232.452 237.84 240.84 246.12 252.12 258.12 262.116 267.35999 273.46799 279.34799 283.41599 288.69601 294.69601 300.92401 306.68399 309.68399 312.68399 316.01999 322.01999 327.34799 330.34799">intuitively. I knew what made the plays work, the choreography, the t</tspan></text>
</g></g><g
       id="g516"><g
         clip-path="url(#clipPath522)"
         id="g518"><text
           id="text526"
           style="font-variant:normal;font-weight:normal;font-size:12px;font-family:TimesNewRomanPSMT;-inkscape-font-specification:TimesNewRomanPSMT;writing-mode:lr-tb;fill:#000000;fill-opacity:1;fill-rule:nonzero;stroke:none"
           transform="matrix(1,0,0,-1,405.91,281.21)"><tspan
             id="tspan524"
             y="0"
             x="0 5.2800002 14.616 20.615999 26.747999 29.747999 32.748001 36.084 42.084 47.411999 50.411999 56.411999 61.667999 66.947998 72.227997 75.227997 78.227997 81.564003 87.695999 92.975998">empo, the pace, the </tspan></text>
</g></g><g
       id="g528"><g
         clip-path="url(#clipPath534)"
         id="g530"><text
           id="text538"
           style="font-variant:normal;font-weight:normal;font-size:12px;font-family:TimesNewRomanPSMT;-inkscape-font-specification:TimesNewRomanPSMT;writing-mode:lr-tb;fill:#000000;fill-opacity:1;fill-rule:nonzero;stroke:none"
           transform="matrix(1,0,0,-1,72.024,267.41)"><tspan
             id="tspan536"
             y="0"
             x="0 3.9960001 9.2399998 12.576 17.903999 21.24 24.576 30.576 36.576 41.268002 47.268002 50.604 56.604 59.604 65.603996 70.931999 74.267998 82.931999 88.188004 93.468002 99.468002 102.468 105.804 111.936 117.216 120.324 126.324 132.32401 136.992 140.35201 143.688 147.06 153.06 159.06 163.728 166.728 169.728 175.02 181.02 187.02 190.02 196.02 202.02 210.68401 213.68401 217.02 223.02 228.3 231.3 237.3 243.3 249.3 255.3 259.96799 263.328 269.328 275.20801 278.20801 281.54401 286.87201 292.12799 301.46399 306.13199 309.13199 312.51599 318.51599 321.85199 327.17999 331.224 336.504 341.784 345.12 350.448 356.448 359.53201 362.86801 368.86801 371.86801 381.23999 386.51999 392.51999 397.79999 400.79999 404.13599 410.13599 415.46399 418.46399 422.39999 425.73599 431.73599 437.064 440.39999 443.39999 448.06799 453.35999 459.35999 463.42801 468.70801">relationship between the positions, and how the opposing teams interacted to make the final score </tspan></text>
</g></g><g
       id="g540"><g
         clip-path="url(#clipPath546)"
         id="g542"><text
           id="text550"
           style="font-variant:normal;font-weight:normal;font-size:12px;font-family:TimesNewRomanPSMT;-inkscape-font-specification:TimesNewRomanPSMT;writing-mode:lr-tb;fill:#000000;fill-opacity:1;fill-rule:nonzero;stroke:none"
           transform="matrix(1,0,0,-1,72.024,253.61)"><tspan
             id="tspan548"
             y="0"
             x="0 8.6639996 14.664 19.92 23.256001 26.256001 29.628 32.964001 35.964001 44.627998 49.908001 54.576 57.576 60.576 69.239998 75.239998 81.239998 84.335999 88.176003 91.176003 97.176003 103.176 108.564 117.228 120.312 126.312 132.312 140.976 143.976 147.312 153.312 156.312 162.312 168.312 171.64799 176.976 180.312 185.592 188.592 191.92799 195.3 198.3 204.3 210.3 213.3 216.636 222.636 227.964 230.964 236.964 240.3 245.58 251.58 255.576 260.82001 270.15601 274.82401">what it was. And I knew how to notate it on the diagrams.</tspan></text>
</g></g><g
       id="g552"><g
         clip-path="url(#clipPath558)"
         id="g554" /></g><g
       id="g560"><g
         clip-path="url(#clipPath566)"
         id="g562" /></g><g
       id="g568"><g
         clip-path="url(#clipPath574)"
         id="g570"><text
           id="text578"
           style="font-variant:normal;font-weight:normal;font-size:12px;font-family:TimesNewRomanPSMT;-inkscape-font-specification:TimesNewRomanPSMT;writing-mode:lr-tb;fill:#000000;fill-opacity:1;fill-rule:nonzero;stroke:none"
           transform="matrix(1,0,0,-1,72.024,226.01)"><tspan
             id="tspan576"
             y="0"
             x="0 3.8399999 7.1760001 10.176 16.176001 19.548 25.548 28.548 33.216 38.616001 43.896 53.231998 56.231998 60.228001 66.227997 72.227997 78.444 84.204002 87.204002 90.540001 96.540001 99.540001 108.912 114.192 117.192 120.528 126.528 131.856 135.192 138.192 141.528 147.528 150.89999 155.56799 158.56799 164.56799 168.564 171.564 174.89999 180.89999 186.17999 189.17999 195.17999 198.51601 204.51601 209.18401 212.20799 218.20799 224.20799 227.20799 230.54401 236.54401 241.87199 244.87199 248.20799 253.48801 258.76801 268.104 271.104 277.104 280.47601 286.47601 292.47601 296.47198 299.80801 302.80801 308.80801 314.80801 320.80801 326.07599 330.07199 334.73999 338.07599 343.35599 349.35599 355.35599 358.35599 361.82401 367.82401">It did seem funny to me that lots of the kids on the team didn’t understand tha</tspan></text>
</g></g><g
       id="g580"><g
         clip-path="url(#clipPath586)"
         id="g582"><text
           id="text590"
           style="font-variant:normal;font-weight:normal;font-size:12px;font-family:TimesNewRomanPSMT;-inkscape-font-specification:TimesNewRomanPSMT;writing-mode:lr-tb;fill:#000000;fill-opacity:1;fill-rule:nonzero;stroke:none"
           transform="matrix(1,0,0,-1,445.27,226.01)"><tspan
             id="tspan588"
             y="0"
             x="0 3.336 6.336 9.3360004 14.664 20.664 26.664 29.664 33 39 44.507999 50.268002 53.268002 56.604 62.604 68.603996 74.736 80.615997 86.615997 89.952003">t, and they thought </tspan></text>
</g></g><g
       id="g592"><g
         clip-path="url(#clipPath598)"
         id="g594"><text
           id="text602"
           style="font-variant:normal;font-weight:normal;font-size:12px;font-family:TimesNewRomanPSMT;-inkscape-font-specification:TimesNewRomanPSMT;writing-mode:lr-tb;fill:#000000;fill-opacity:1;fill-rule:nonzero;stroke:none"
           transform="matrix(1,0,0,-1,72.024,212.21)"><tspan
             id="tspan600"
             y="0"
             x="0 3.336 9.3360004 14.664 18 21 24.336 30.336 35.664001 38.664001 48 54 58.667999 62.028 65.028 68.363998 77.736 83.736 89.736 93.732002 97.068001 102.336 108.336 111.672 114.672 120.576 125.856 129.85201 133.188 136.188 144.81599 150.09599 154.76401 157.76401 167.10001 172.42799 178.42799 181.76401 187.884 193.76401 196.76401 200.10001 206.10001 211.42799 214.42799 217.76401 223.76401 229.76401 235.04401 241.15199 247.15199 253.15199 261.81601 267.81601 270.81601 273.81601 279.81601 283.75201 286.75201 292.03201 298.03201 303.31201 309.31201 312.31201 316.98001 320.34 323.67599 327.048 330.384 335.71201 339.64801 342.64801 345.75601 351.63599 356.91599 360.25201 363.74399 367.07999 373.07999 378.98401 381.98401 391.32001 397.32001 401.31601 406.58401 409.58401 415.58401 421.58401 424.92001 430.92001 434.29199 438.95999 441.95999 445.29599 451.29599 456.62399 462.62399 465.62399 468.95999 474.95999 480.25201">that the most important part was making the touchdown, or even sillier, getting more points than the </tspan></text>
</g></g><g
       id="g604"><g
         clip-path="url(#clipPath610)"
         id="g606"><text
           id="text614"
           style="font-variant:normal;font-weight:normal;font-size:12px;font-family:TimesNewRomanPSMT;-inkscape-font-specification:TimesNewRomanPSMT;writing-mode:lr-tb;fill:#000000;fill-opacity:1;fill-rule:nonzero;stroke:none"
           transform="matrix(1,0,0,-1,72.024,198.38)"><tspan
             id="tspan612"
             y="0"
             x="0 6 9.3360004 15.336 20.664 24.6 27.6 30.936001 36.264 41.52 50.855999 53.855999 56.855999 64.188004 70.188004 75.708 81.468002 84.468002 87.804001 93.804001 98.472 101.856 104.856 110.856 114.192 120.324 126.324 130.32001 133.65601 136.65601 142.65601 148.65601 154.65601 159.924 163.92 168.588 171.924 177.20399 183.20399 189.20399 192.20399 195.53999 201.53999 206.868 210.20399 213.20399 216.53999 221.868 227.12399 236.592 245.256 251.256 255.192 261.19199 264.19199 269.47198 275.47198 281.47198 284.47198 287.80801 293.80801 299.13599 302.22 308.10001 312.168 317.448 322.836 328.116 331.116 337.116 341.112 344.112 349.35599 355.46399 360.74399 364.93201 370.69199 373.69199 383.02802 389.02802 395.02802 400.35599 403.35599 411.97198 417.25201 421.92001 425.04001 429.03601 434.28 439.56 442.896 446.508 452.26801 455.26801 463.93201 470.01599 475.40399 478.73999">other team. They just didn’t understand that teamwork and the grace of every move was really what </tspan></text>
</g></g><g
       id="g616"><g
         clip-path="url(#clipPath622)"
         id="g618"><text
           id="text626"
           style="font-variant:normal;font-weight:normal;font-size:12px;font-family:TimesNewRomanPSMT;-inkscape-font-specification:TimesNewRomanPSMT;writing-mode:lr-tb;fill:#000000;fill-opacity:1;fill-rule:nonzero;stroke:none"
           transform="matrix(1,0,0,-1,72.024,184.58)"><tspan
             id="tspan624"
             y="0"
             x="0 8.6639996 13.92 18.587999 21.587999 24.924 34.307999 40.307999 46.307999 50.304001 53.639999 58.908001 64.907997 68.244003 71.244003 74.244003 80.975998 86.975998 96.311996 101.64 104.64 110.64 114.576 117.576 120.912 126.912 132.24001 141.576 144.576 149.856 155.856 161.136 167.136 170.136 173.472 179.472 185.472">was important. Some of them even thou</tspan></text>
</g></g><g
       id="g628"><g
         clip-path="url(#clipPath634)"
         id="g630"><text
           id="text638"
           style="font-variant:normal;font-weight:normal;font-size:12px;font-family:TimesNewRomanPSMT;-inkscape-font-specification:TimesNewRomanPSMT;writing-mode:lr-tb;fill:#000000;fill-opacity:1;fill-rule:nonzero;stroke:none"
           transform="matrix(1,0,0,-1,263.69,184.58)"><tspan
             id="tspan636"
             y="0"
             x="0 5.8800001 11.88 15.216 18.216 21.587999 27.587999 32.868 36.203999 39.203999 42.576 48.576 53.964001 59.723999 62.832001 71.496002 76.751999 80.82 86.099998 89.099998 93.767998 99.767998 105.768 111.768 117.768 122.436 127.764 133.76401 136.76401 140.10001 146.10001 149.10001 155.10001 161.10001 165.06 168.528 171.636 177.396 183.396 189.396 192.396 201.06 204.396 207.73199 213.73199 216.73199 220.104 226.104 231.384 234.72 238.716 241.716 251.052 257.052 263.052 268.34399 273.01199 276.01199 279.01199 285.01199 289.09201">ght that they were supposed to hurt you with their moves, or </tspan></text>
</g></g><g
       id="g640"><g
         clip-path="url(#clipPath646)"
         id="g642"><text
           id="text650"
           style="font-variant:normal;font-weight:normal;font-size:12px;font-family:TimesNewRomanPSMT;-inkscape-font-specification:TimesNewRomanPSMT;writing-mode:lr-tb;fill:#000000;fill-opacity:1;fill-rule:nonzero;stroke:none"
           transform="matrix(1,0,0,-1,72.024,170.78)"><tspan
             id="tspan648"
             y="0"
             x="0 9.3360004 14.664 19.332001 24 27 33 39 42 45.335999 51.335999 56.664001 59.664001 65.664001 69 74.388 80.148003 83.255997 88.536003 94.536003 100.536 103.536 109.536 115.536 118.644 123.312 129.312 138.64799 143.976 147.312 153.312 156.672 162.672 168.552 171.552 177.552 180.888 184.884 188.832 194.22 198.216 203.46001 209.46001 212.79601 215.79601 219.168 225.168 229.836 233.172 236.172 240.87601 246.87601 249.87601 253.21201 259.21201 264.62399 270.384 273.492 278.772 284.772 290.772 294.108 300.108 303.108 312.48001 317.76001 323.76001 329.04001 332.04001 337.32001 340.32001 343.65601 349.65601 355.78799 361.17599 367.17599 373.17599 379.17599 387.84 393.84">mess up the play and do something different just so they could make a touchdown.</tspan></text>
</g></g><g
       id="g652"><g
         clip-path="url(#clipPath658)"
         id="g654" /></g><g
       id="g660"><g
         clip-path="url(#clipPath666)"
         id="g662" /></g><g
       id="g668"><g
         clip-path="url(#clipPath674)"
         id="g670"><text
           id="text678"
           style="font-variant:normal;font-weight:normal;font-size:12px;font-family:TimesNewRomanPSMT;-inkscape-font-specification:TimesNewRomanPSMT;writing-mode:lr-tb;fill:#000000;fill-opacity:1;fill-rule:nonzero;stroke:none"
           transform="matrix(1,0,0,-1,72.024,143.18)"><tspan
             id="tspan676"
             y="0"
             x="0 3.8399999 6.8400002 10.176 16.176001 22.176001 28.308001 34.188 40.188 43.523998 46.655998 50.495998 53.495998 62.243999 67.524002 72.192001 75.311996 81.192001 87.192001 93.192001 99.192001 102.192 105.192 111.192 117.192 120.66 123.768 127.488 130.48801 136.48801 139.82401 145.82401 148.82401 154.82401 160.82401 164.196 167.532 172.86 178.116 181.116 184.452 190.584 195.864 199.2 202.2 205.57201 211.57201 216.85201 220.84801 226.092 229.2 237.864 243.228 247.224 252.468 255.468 261.46799 264.80399 270.80399 276.13199 280.06799 284.73599 287.73599 296.39999 302.39999 308.39999 311.496 320.16 325.41599 329.48401 334.76401 337.76401 341.76001 347.004 351.672 355.008 360.43201 364.5 367.5 370.5 376.5 380.496 383.496 389.45999 392.79599 398.79599 404.70001 410.08801 414.08401 417.08401 420.08401 425.328 431.328 437.328 440.436 446.31601 452.31601 455.65201 458.65201 462.02399 468.02399">I thought I was good, but I did notice that there were others who were faster, or bigger, and got to </tspan></text>
</g></g><g
       id="g680"><g
         clip-path="url(#clipPath686)"
         id="g682"><text
           id="text690"
           style="font-variant:normal;font-weight:normal;font-size:12px;font-family:TimesNewRomanPSMT;-inkscape-font-specification:TimesNewRomanPSMT;writing-mode:lr-tb;fill:#000000;fill-opacity:1;fill-rule:nonzero;stroke:none"
           transform="matrix(1,0,0,-1,72.024,129.38)"><tspan
             id="tspan688"
             y="0"
             x="0 5.2800002 10.56 14.556 18.708 24.468 27.468 30.804001 36.936001 42.216 45.216 51.216">carry the ba</tspan></text>
</g></g><g
       id="g692"><g
         clip-path="url(#clipPath698)"
         id="g694"><text
           id="text702"
           style="font-variant:normal;font-weight:normal;font-size:12px;font-family:TimesNewRomanPSMT;-inkscape-font-specification:TimesNewRomanPSMT;writing-mode:lr-tb;fill:#000000;fill-opacity:1;fill-rule:nonzero;stroke:none"
           transform="matrix(1,0,0,-1,128.54,129.38)"><tspan
             id="tspan700"
             y="0"
             x="0 3.336 6.7080002 9.7080002 19.044001 25.044001 29.040001 34.307999 37.307999 42.588001 48.695999 53.976002 59.976002 63.084 66.419998 72.419998 78.419998 84.419998 90.323997 96.323997 99.323997 102.66 108.66 114.192 119.952 122.952 131.7 136.98 140.976 146.22 149.22 155.328 159.32401 162.66 167.92799 173.92799 176.92799 180.396 186.396 191.67599 194.67599 200.67599 206.67599 211.95599 216.62399 219.62399 228.28799 234.28799 240.28799 243.28799 249.28799 252.62399 258.62399 264.62399 268.62 271.95599 274.95599 280.95599 286.95599 292.95599 298.34399 302.41199 307.07999 310.41599 315.74399 321.74399 327.74399 330.74399 334.07999 340.07999 345.37201 348.37201 354.37201 359.65201 368.98801 374.31601 377.31601 380.31601 385.57199 391.57199 397.57199 400.57199 403.90799 409.90799 414.60001 417.936">ll more even though they were often the ones who didn’t understand the game, and just </tspan></text>
</g></g><g
       id="g704"><g
         clip-path="url(#clipPath710)"
         id="g706"><text
           id="text714"
           style="font-variant:normal;font-weight:normal;font-size:12px;font-family:TimesNewRomanPSMT;-inkscape-font-specification:TimesNewRomanPSMT;writing-mode:lr-tb;fill:#000000;fill-opacity:1;fill-rule:nonzero;stroke:none"
           transform="matrix(1,0,0,-1,72.024,115.58)"><tspan
             id="tspan712"
             y="0"
             x="0 8.6639996 13.92 19.92 23.256001 28.584 34.584 37.584 40.919998 46.919998 49.919998 59.256001 64.584 70.584 75.839996 78.839996 84.839996 90.839996 94.176003 100.176 103.548 108.216 111.216 114.336 123 129 135 138 141.336 147.336 150.336 156.336 159.672 165.576 171.576 174.576 179.244 184.536 190.536 196.536 202.536 205.87199 208.87199 212.004 217.884 221.22 225.216 228.552 233.22 236.35201 245.01601 250.272 254.26801 259.51199 262.51199 265.84799 275.22 281.22 287.22 291.216 294.552 299.82001 305.82001 309.15601 312.15601 315.52802 321.52802 327.52802 330.52802 333.52802 338.80801 344.80801 350.80801 354.03601 358.03201 361.03201 367.03201 373.03201 376.36801 379.70401 385.03201 390.276 396.276 399.276 402.612 408.612 413.94 417.276 420.276 423.612 429.612 435.14401 440.90399 443.90399 449.90399 453.23999 459.23999 465.23999 469.23599 472.57199">wanted to make points. And in high school, girls were important too, and I noticed that they didn’t </tspan></text>
</g></g><g
       id="g716"><g
         clip-path="url(#clipPath722)"
         id="g718"><text
           id="text726"
           style="font-variant:normal;font-weight:normal;font-size:12px;font-family:TimesNewRomanPSMT;-inkscape-font-specification:TimesNewRomanPSMT;writing-mode:lr-tb;fill:#000000;fill-opacity:1;fill-rule:nonzero;stroke:none"
           transform="matrix(1,0,0,-1,72.024,101.78)"><tspan
             id="tspan724"
             y="0"
             x="0 5.2800002 10.56 14.556 19.799999 22.908001 28.188 32.855999 35.855999 45.192001 51.192001 56.52 62.52 65.519997 70.788002 76.788002 82.788002 88.788002 92.124001 95.124001 98.496002 104.496 109.776 112.884 116.952 122.952 128.952 132.28799 138.28799 143.616 146.952 150.28799 153.28799 159.28799 162.66 168.048 173.808 179.196 183.192 187.86 190.86 196.116 200.784 203.784 207.12 213.12 218.664 224.424 227.424 233.424 236.892 242.892 245.892 251.172 257.172 263.172 269.172 272.508 275.508 278.88 284.88 290.16 293.16 299.16 302.496 308.39999 311.39999 317.508 322.78799 328.78799">care as much about the football players as they did about the big bad </tspan></text>
</g></g><g
       id="g728"><g
         clip-path="url(#clipPath734)"
         id="g730"><text
           id="text738"
           style="font-variant:normal;font-weight:normal;font-size:12px;font-family:TimesNewRomanPSMT;-inkscape-font-specification:TimesNewRomanPSMT;writing-mode:lr-tb;fill:#000000;fill-opacity:1;fill-rule:nonzero;stroke:none"
           transform="matrix(1,0,0,-1,403.99,101.78)"><tspan
             id="tspan736"
             y="0"
             x="0 6 11.28 17.280001 23.280001 26.388 35.723999 41.051998 50.388 56.388 61.667999 65.664001 70.332001 73.332001 76.416 80.255997 83.255997 89.255997 95.255997 101.256 105.216 108.552 111.552 117.552 123.552 129.552 138.216">band members. I don’t know </tspan></text>
</g></g><g
       id="g740"><g
         clip-path="url(#clipPath746)"
         id="g742"><text
           id="text750"
           style="font-variant:normal;font-weight:normal;font-size:12px;font-family:TimesNewRomanPSMT;-inkscape-font-specification:TimesNewRomanPSMT;writing-mode:lr-tb;fill:#000000;fill-opacity:1;fill-rule:nonzero;stroke:none"
           transform="matrix(1,0,0,-1,72.024,87.984)"><tspan
             id="tspan748"
             y="0"
             x="0 8.6639996 14.748 20.507999 23.507999 26.736 30.576 33.576 36.911999 42.911999 48.911999 54.911999 60.816002 66.816002 70.152 73.152 76.524002 82.524002 87.804001 90.804001 96.912003 102.192 108.192 114.192 117.3 123.18 129.408 135.168 139.836 142.836 151.59599 156.87601 160.87199 166.116 169.224 174.504 177.84 181.21201 184.21201 187.548 192.87601 196.812 202.812 207.48 210.48 213.48 218.772 224.772 230.772 233.772 237.24001 243.24001 248.62801 254.388 257.496 262.776 266.112 269.48401 272.48401 275.82001 281.82001 287.82001 293.82001 299.724 305.724 309.06 312.06 315.43201 321.43201 326.94 332.70001 335.70001 344.448 349.728 353.724 359.07599 362.07599 365.41199 371.41199 376.73999 379.73999 385.59601 389.664 394.944 400.224 403.56 408.888 413.556 416.892 420.01199 425.892 429.228 433.224 436.56 439.56 442.92001 448.92001">why. I thought the band guys were all jerks, and they all thought they were the greatest gift to </tspan></text>
</g></g></g></svg>