<?xml version="1.0" encoding="UTF-8" standalone="no"?>
<svg
   xmlns:dc="http://purl.org/dc/elements/1.1/"
   xmlns:cc="http://creativecommons.org/ns#"
   xmlns:rdf="http://www.w3.org/1999/02/22-rdf-syntax-ns#"
   xmlns:svg="http://www.w3.org/2000/svg"
   xmlns="http://www.w3.org/2000/svg"
   viewBox="0 0 816 1056"
   height="1056"
   width="816"
   xml:space="preserve"
   id="svg2"
   version="1.1"><metadata
     id="metadata8"><rdf:RDF><cc:Work
         rdf:about=""><dc:format>image/svg+xml</dc:format><dc:type
           rdf:resource="http://purl.org/dc/dcmitype/StillImage" /></cc:Work></rdf:RDF></metadata><defs
     id="defs6"><clipPath
       id="clipPath18"
       clipPathUnits="userSpaceOnUse"><path
         style="clip-rule:evenodd"
         id="path16"
         d="M 9.12e-6,0 H 612.00001 V 792 H 9.12e-6 Z" /></clipPath><clipPath
       id="clipPath26"
       clipPathUnits="userSpaceOnUse"><path
         style="clip-rule:evenodd"
         id="path24"
         d="M 9.12e-6,0 H 612.00001 V 792 H 9.12e-6 Z" /></clipPath><clipPath
       id="clipPath34"
       clipPathUnits="userSpaceOnUse"><path
         style="clip-rule:evenodd"
         id="path32"
         d="M 9.12e-6,0 H 612.00001 V 792 H 9.12e-6 Z" /></clipPath><clipPath
       id="clipPath42"
       clipPathUnits="userSpaceOnUse"><path
         style="clip-rule:evenodd"
         id="path40"
         d="M 9.12e-6,0 H 612.00001 V 792 H 9.12e-6 Z" /></clipPath><clipPath
       id="clipPath54"
       clipPathUnits="userSpaceOnUse"><path
         style="clip-rule:evenodd"
         id="path52"
         d="M 9.12e-6,0 H 612.00001 V 792 H 9.12e-6 Z" /></clipPath><clipPath
       id="clipPath62"
       clipPathUnits="userSpaceOnUse"><path
         style="clip-rule:evenodd"
         id="path60"
         d="M 9.12e-6,0 H 612.00001 V 792 H 9.12e-6 Z" /></clipPath><clipPath
       id="clipPath70"
       clipPathUnits="userSpaceOnUse"><path
         style="clip-rule:evenodd"
         id="path68"
         d="M 9.12e-6,0 H 612.00001 V 792 H 9.12e-6 Z" /></clipPath><clipPath
       id="clipPath78"
       clipPathUnits="userSpaceOnUse"><path
         style="clip-rule:evenodd"
         id="path76"
         d="M 9.12e-6,0 H 612.00001 V 792 H 9.12e-6 Z" /></clipPath><clipPath
       id="clipPath86"
       clipPathUnits="userSpaceOnUse"><path
         style="clip-rule:evenodd"
         id="path84"
         d="M 9.12e-6,0 H 612.00001 V 792 H 9.12e-6 Z" /></clipPath><clipPath
       id="clipPath94"
       clipPathUnits="userSpaceOnUse"><path
         style="clip-rule:evenodd"
         id="path92"
         d="M 9.12e-6,0 H 612.00001 V 792 H 9.12e-6 Z" /></clipPath><clipPath
       id="clipPath106"
       clipPathUnits="userSpaceOnUse"><path
         style="clip-rule:evenodd"
         id="path104"
         d="M 9.12e-6,0 H 612.00001 V 792 H 9.12e-6 Z" /></clipPath><clipPath
       id="clipPath114"
       clipPathUnits="userSpaceOnUse"><path
         style="clip-rule:evenodd"
         id="path112"
         d="M 9.12e-6,0 H 612.00001 V 792 H 9.12e-6 Z" /></clipPath><clipPath
       id="clipPath122"
       clipPathUnits="userSpaceOnUse"><path
         style="clip-rule:evenodd"
         id="path120"
         d="M 9.12e-6,0 H 612.00001 V 792 H 9.12e-6 Z" /></clipPath><clipPath
       id="clipPath134"
       clipPathUnits="userSpaceOnUse"><path
         style="clip-rule:evenodd"
         id="path132"
         d="M 9.12e-6,0 H 612.00001 V 792 H 9.12e-6 Z" /></clipPath><clipPath
       id="clipPath142"
       clipPathUnits="userSpaceOnUse"><path
         style="clip-rule:evenodd"
         id="path140"
         d="M 9.12e-6,0 H 612.00001 V 792 H 9.12e-6 Z" /></clipPath><clipPath
       id="clipPath150"
       clipPathUnits="userSpaceOnUse"><path
         style="clip-rule:evenodd"
         id="path148"
         d="M 9.12e-6,0 H 612.00001 V 792 H 9.12e-6 Z" /></clipPath><clipPath
       id="clipPath162"
       clipPathUnits="userSpaceOnUse"><path
         style="clip-rule:evenodd"
         id="path160"
         d="M 9.12e-6,0 H 612.00001 V 792 H 9.12e-6 Z" /></clipPath><clipPath
       id="clipPath170"
       clipPathUnits="userSpaceOnUse"><path
         style="clip-rule:evenodd"
         id="path168"
         d="M 9.12e-6,0 H 612.00001 V 792 H 9.12e-6 Z" /></clipPath><clipPath
       id="clipPath178"
       clipPathUnits="userSpaceOnUse"><path
         style="clip-rule:evenodd"
         id="path176"
         d="M 9.12e-6,0 H 612.00001 V 792 H 9.12e-6 Z" /></clipPath><clipPath
       id="clipPath186"
       clipPathUnits="userSpaceOnUse"><path
         style="clip-rule:evenodd"
         id="path184"
         d="M 9.12e-6,0 H 612.00001 V 792 H 9.12e-6 Z" /></clipPath><clipPath
       id="clipPath198"
       clipPathUnits="userSpaceOnUse"><path
         style="clip-rule:evenodd"
         id="path196"
         d="M 9.12e-6,0 H 612.00001 V 792 H 9.12e-6 Z" /></clipPath><clipPath
       id="clipPath206"
       clipPathUnits="userSpaceOnUse"><path
         style="clip-rule:evenodd"
         id="path204"
         d="M 9.12e-6,0 H 612.00001 V 792 H 9.12e-6 Z" /></clipPath><clipPath
       id="clipPath214"
       clipPathUnits="userSpaceOnUse"><path
         style="clip-rule:evenodd"
         id="path212"
         d="M 9.12e-6,0 H 612.00001 V 792 H 9.12e-6 Z" /></clipPath><clipPath
       id="clipPath222"
       clipPathUnits="userSpaceOnUse"><path
         style="clip-rule:evenodd"
         id="path220"
         d="M 9.12e-6,0 H 612.00001 V 792 H 9.12e-6 Z" /></clipPath><clipPath
       id="clipPath234"
       clipPathUnits="userSpaceOnUse"><path
         style="clip-rule:evenodd"
         id="path232"
         d="M 9.12e-6,0 H 612.00001 V 792 H 9.12e-6 Z" /></clipPath><clipPath
       id="clipPath242"
       clipPathUnits="userSpaceOnUse"><path
         style="clip-rule:evenodd"
         id="path240"
         d="M 9.12e-6,0 H 612.00001 V 792 H 9.12e-6 Z" /></clipPath><clipPath
       id="clipPath250"
       clipPathUnits="userSpaceOnUse"><path
         style="clip-rule:evenodd"
         id="path248"
         d="M 9.12e-6,0 H 612.00001 V 792 H 9.12e-6 Z" /></clipPath><clipPath
       id="clipPath258"
       clipPathUnits="userSpaceOnUse"><path
         style="clip-rule:evenodd"
         id="path256"
         d="M 9.12e-6,0 H 612.00001 V 792 H 9.12e-6 Z" /></clipPath><clipPath
       id="clipPath270"
       clipPathUnits="userSpaceOnUse"><path
         style="clip-rule:evenodd"
         id="path268"
         d="M 9.12e-6,0 H 612.00001 V 792 H 9.12e-6 Z" /></clipPath><clipPath
       id="clipPath278"
       clipPathUnits="userSpaceOnUse"><path
         style="clip-rule:evenodd"
         id="path276"
         d="M 9.12e-6,0 H 612.00001 V 792 H 9.12e-6 Z" /></clipPath><clipPath
       id="clipPath286"
       clipPathUnits="userSpaceOnUse"><path
         style="clip-rule:evenodd"
         id="path284"
         d="M 9.12e-6,0 H 612.00001 V 792 H 9.12e-6 Z" /></clipPath><clipPath
       id="clipPath294"
       clipPathUnits="userSpaceOnUse"><path
         style="clip-rule:evenodd"
         id="path292"
         d="M 9.12e-6,0 H 612.00001 V 792 H 9.12e-6 Z" /></clipPath><clipPath
       id="clipPath306"
       clipPathUnits="userSpaceOnUse"><path
         style="clip-rule:evenodd"
         id="path304"
         d="M 9.12e-6,0 H 612.00001 V 792 H 9.12e-6 Z" /></clipPath><clipPath
       id="clipPath314"
       clipPathUnits="userSpaceOnUse"><path
         style="clip-rule:evenodd"
         id="path312"
         d="M 9.12e-6,0 H 612.00001 V 792 H 9.12e-6 Z" /></clipPath><clipPath
       id="clipPath322"
       clipPathUnits="userSpaceOnUse"><path
         style="clip-rule:evenodd"
         id="path320"
         d="M 9.12e-6,0 H 612.00001 V 792 H 9.12e-6 Z" /></clipPath><clipPath
       id="clipPath330"
       clipPathUnits="userSpaceOnUse"><path
         style="clip-rule:evenodd"
         id="path328"
         d="M 9.12e-6,0 H 612.00001 V 792 H 9.12e-6 Z" /></clipPath><clipPath
       id="clipPath338"
       clipPathUnits="userSpaceOnUse"><path
         style="clip-rule:evenodd"
         id="path336"
         d="M 9.12e-6,0 H 612.00001 V 792 H 9.12e-6 Z" /></clipPath><clipPath
       id="clipPath350"
       clipPathUnits="userSpaceOnUse"><path
         style="clip-rule:evenodd"
         id="path348"
         d="M 9.12e-6,0 H 612.00001 V 792 H 9.12e-6 Z" /></clipPath><clipPath
       id="clipPath358"
       clipPathUnits="userSpaceOnUse"><path
         style="clip-rule:evenodd"
         id="path356"
         d="M 9.12e-6,0 H 612.00001 V 792 H 9.12e-6 Z" /></clipPath><clipPath
       id="clipPath370"
       clipPathUnits="userSpaceOnUse"><path
         style="clip-rule:evenodd"
         id="path368"
         d="M 9.12e-6,0 H 612.00001 V 792 H 9.12e-6 Z" /></clipPath><clipPath
       id="clipPath378"
       clipPathUnits="userSpaceOnUse"><path
         style="clip-rule:evenodd"
         id="path376"
         d="M 9.12e-6,0 H 612.00001 V 792 H 9.12e-6 Z" /></clipPath><clipPath
       id="clipPath386"
       clipPathUnits="userSpaceOnUse"><path
         style="clip-rule:evenodd"
         id="path384"
         d="M 9.12e-6,0 H 612.00001 V 792 H 9.12e-6 Z" /></clipPath><clipPath
       id="clipPath394"
       clipPathUnits="userSpaceOnUse"><path
         style="clip-rule:evenodd"
         id="path392"
         d="M 9.12e-6,0 H 612.00001 V 792 H 9.12e-6 Z" /></clipPath><clipPath
       id="clipPath406"
       clipPathUnits="userSpaceOnUse"><path
         style="clip-rule:evenodd"
         id="path404"
         d="M 9.12e-6,0 H 612.00001 V 792 H 9.12e-6 Z" /></clipPath><clipPath
       id="clipPath414"
       clipPathUnits="userSpaceOnUse"><path
         style="clip-rule:evenodd"
         id="path412"
         d="M 9.12e-6,0 H 612.00001 V 792 H 9.12e-6 Z" /></clipPath><clipPath
       id="clipPath422"
       clipPathUnits="userSpaceOnUse"><path
         style="clip-rule:evenodd"
         id="path420"
         d="M 9.12e-6,0 H 612.00001 V 792 H 9.12e-6 Z" /></clipPath><clipPath
       id="clipPath430"
       clipPathUnits="userSpaceOnUse"><path
         style="clip-rule:evenodd"
         id="path428"
         d="M 9.12e-6,0 H 612.00001 V 792 H 9.12e-6 Z" /></clipPath><clipPath
       id="clipPath442"
       clipPathUnits="userSpaceOnUse"><path
         style="clip-rule:evenodd"
         id="path440"
         d="M 9.12e-6,0 H 612.00001 V 792 H 9.12e-6 Z" /></clipPath><clipPath
       id="clipPath450"
       clipPathUnits="userSpaceOnUse"><path
         style="clip-rule:evenodd"
         id="path448"
         d="M 9.12e-6,0 H 612.00001 V 792 H 9.12e-6 Z" /></clipPath><clipPath
       id="clipPath458"
       clipPathUnits="userSpaceOnUse"><path
         style="clip-rule:evenodd"
         id="path456"
         d="M 9.12e-6,0 H 612.00001 V 792 H 9.12e-6 Z" /></clipPath><clipPath
       id="clipPath466"
       clipPathUnits="userSpaceOnUse"><path
         style="clip-rule:evenodd"
         id="path464"
         d="M 9.12e-6,0 H 612.00001 V 792 H 9.12e-6 Z" /></clipPath><clipPath
       id="clipPath478"
       clipPathUnits="userSpaceOnUse"><path
         style="clip-rule:evenodd"
         id="path476"
         d="M 9.12e-6,0 H 612.00001 V 792 H 9.12e-6 Z" /></clipPath><clipPath
       id="clipPath486"
       clipPathUnits="userSpaceOnUse"><path
         style="clip-rule:evenodd"
         id="path484"
         d="M 9.12e-6,0 H 612.00001 V 792 H 9.12e-6 Z" /></clipPath><clipPath
       id="clipPath494"
       clipPathUnits="userSpaceOnUse"><path
         style="clip-rule:evenodd"
         id="path492"
         d="M 9.12e-6,0 H 612.00001 V 792 H 9.12e-6 Z" /></clipPath><clipPath
       id="clipPath502"
       clipPathUnits="userSpaceOnUse"><path
         style="clip-rule:evenodd"
         id="path500"
         d="M 9.12e-6,0 H 612.00001 V 792 H 9.12e-6 Z" /></clipPath><clipPath
       id="clipPath514"
       clipPathUnits="userSpaceOnUse"><path
         style="clip-rule:evenodd"
         id="path512"
         d="M 9.12e-6,0 H 612.00001 V 792 H 9.12e-6 Z" /></clipPath><clipPath
       id="clipPath522"
       clipPathUnits="userSpaceOnUse"><path
         style="clip-rule:evenodd"
         id="path520"
         d="M 9.12e-6,0 H 612.00001 V 792 H 9.12e-6 Z" /></clipPath><clipPath
       id="clipPath530"
       clipPathUnits="userSpaceOnUse"><path
         style="clip-rule:evenodd"
         id="path528"
         d="M 9.12e-6,0 H 612.00001 V 792 H 9.12e-6 Z" /></clipPath><clipPath
       id="clipPath538"
       clipPathUnits="userSpaceOnUse"><path
         style="clip-rule:evenodd"
         id="path536"
         d="M 9.12e-6,0 H 612.00001 V 792 H 9.12e-6 Z" /></clipPath><clipPath
       id="clipPath546"
       clipPathUnits="userSpaceOnUse"><path
         style="clip-rule:evenodd"
         id="path544"
         d="M 9.12e-6,0 H 612.00001 V 792 H 9.12e-6 Z" /></clipPath><clipPath
       id="clipPath558"
       clipPathUnits="userSpaceOnUse"><path
         style="clip-rule:evenodd"
         id="path556"
         d="M 9.12e-6,0 H 612.00001 V 792 H 9.12e-6 Z" /></clipPath><clipPath
       id="clipPath566"
       clipPathUnits="userSpaceOnUse"><path
         style="clip-rule:evenodd"
         id="path564"
         d="M 9.12e-6,0 H 612.00001 V 792 H 9.12e-6 Z" /></clipPath><clipPath
       id="clipPath574"
       clipPathUnits="userSpaceOnUse"><path
         style="clip-rule:evenodd"
         id="path572"
         d="M 9.12e-6,0 H 612.00001 V 792 H 9.12e-6 Z" /></clipPath><clipPath
       id="clipPath582"
       clipPathUnits="userSpaceOnUse"><path
         style="clip-rule:evenodd"
         id="path580"
         d="M 9.12e-6,0 H 612.00001 V 792 H 9.12e-6 Z" /></clipPath><clipPath
       id="clipPath594"
       clipPathUnits="userSpaceOnUse"><path
         style="clip-rule:evenodd"
         id="path592"
         d="M 9.12e-6,0 H 612.00001 V 792 H 9.12e-6 Z" /></clipPath><clipPath
       id="clipPath602"
       clipPathUnits="userSpaceOnUse"><path
         style="clip-rule:evenodd"
         id="path600"
         d="M 9.12e-6,0 H 612.00001 V 792 H 9.12e-6 Z" /></clipPath><clipPath
       id="clipPath610"
       clipPathUnits="userSpaceOnUse"><path
         style="clip-rule:evenodd"
         id="path608"
         d="M 9.12e-6,0 H 612.00001 V 792 H 9.12e-6 Z" /></clipPath><clipPath
       id="clipPath618"
       clipPathUnits="userSpaceOnUse"><path
         style="clip-rule:evenodd"
         id="path616"
         d="M 9.12e-6,0 H 612.00001 V 792 H 9.12e-6 Z" /></clipPath><clipPath
       id="clipPath630"
       clipPathUnits="userSpaceOnUse"><path
         style="clip-rule:evenodd"
         id="path628"
         d="M 9.12e-6,0 H 612.00001 V 792 H 9.12e-6 Z" /></clipPath><clipPath
       id="clipPath638"
       clipPathUnits="userSpaceOnUse"><path
         style="clip-rule:evenodd"
         id="path636"
         d="M 9.12e-6,0 H 612.00001 V 792 H 9.12e-6 Z" /></clipPath><clipPath
       id="clipPath646"
       clipPathUnits="userSpaceOnUse"><path
         style="clip-rule:evenodd"
         id="path644"
         d="M 9.12e-6,0 H 612.00001 V 792 H 9.12e-6 Z" /></clipPath><clipPath
       id="clipPath654"
       clipPathUnits="userSpaceOnUse"><path
         style="clip-rule:evenodd"
         id="path652"
         d="M 9.12e-6,0 H 612.00001 V 792 H 9.12e-6 Z" /></clipPath><clipPath
       id="clipPath666"
       clipPathUnits="userSpaceOnUse"><path
         style="clip-rule:evenodd"
         id="path664"
         d="M 9.12e-6,0 H 612.00001 V 792 H 9.12e-6 Z" /></clipPath><clipPath
       id="clipPath674"
       clipPathUnits="userSpaceOnUse"><path
         style="clip-rule:evenodd"
         id="path672"
         d="M 9.12e-6,0 H 612.00001 V 792 H 9.12e-6 Z" /></clipPath><clipPath
       id="clipPath682"
       clipPathUnits="userSpaceOnUse"><path
         style="clip-rule:evenodd"
         id="path680"
         d="M 9.12e-6,0 H 612.00001 V 792 H 9.12e-6 Z" /></clipPath><clipPath
       id="clipPath690"
       clipPathUnits="userSpaceOnUse"><path
         style="clip-rule:evenodd"
         id="path688"
         d="M 9.12e-6,0 H 612.00001 V 792 H 9.12e-6 Z" /></clipPath><clipPath
       id="clipPath702"
       clipPathUnits="userSpaceOnUse"><path
         style="clip-rule:evenodd"
         id="path700"
         d="M 9.12e-6,0 H 612.00001 V 792 H 9.12e-6 Z" /></clipPath><clipPath
       id="clipPath710"
       clipPathUnits="userSpaceOnUse"><path
         style="clip-rule:evenodd"
         id="path708"
         d="M 9.12e-6,0 H 612.00001 V 792 H 9.12e-6 Z" /></clipPath><clipPath
       id="clipPath718"
       clipPathUnits="userSpaceOnUse"><path
         style="clip-rule:evenodd"
         id="path716"
         d="M 9.12e-6,0 H 612.00001 V 792 H 9.12e-6 Z" /></clipPath><clipPath
       id="clipPath726"
       clipPathUnits="userSpaceOnUse"><path
         style="clip-rule:evenodd"
         id="path724"
         d="M 9.12e-6,0 H 612.00001 V 792 H 9.12e-6 Z" /></clipPath><clipPath
       id="clipPath734"
       clipPathUnits="userSpaceOnUse"><path
         style="clip-rule:evenodd"
         id="path732"
         d="M 9.12e-6,0 H 612.00001 V 792 H 9.12e-6 Z" /></clipPath><clipPath
       id="clipPath742"
       clipPathUnits="userSpaceOnUse"><path
         style="clip-rule:evenodd"
         id="path740"
         d="M 9.12e-6,0 H 612.00001 V 792 H 9.12e-6 Z" /></clipPath><clipPath
       id="clipPath754"
       clipPathUnits="userSpaceOnUse"><path
         style="clip-rule:evenodd"
         id="path752"
         d="M 9.12e-6,0 H 612.00001 V 792 H 9.12e-6 Z" /></clipPath></defs><g
     transform="matrix(1.3333333,0,0,-1.3333333,0,1056)"
     id="g10"><g
       id="g12"><g
         clip-path="url(#clipPath18)"
         id="g14" /></g><g
       id="g20"><g
         clip-path="url(#clipPath26)"
         id="g22" /></g><g
       id="g28"><g
         clip-path="url(#clipPath34)"
         id="g30" /></g><g
       id="g36"><g
         clip-path="url(#clipPath42)"
         id="g38"><text
           id="text46"
           style="font-variant:normal;font-weight:normal;font-size:14.03999996px;font-family:TimesNewRomanPSMT;-inkscape-font-specification:TimesNewRomanPSMT;writing-mode:lr-tb;fill:#000000;fill-opacity:1;fill-rule:nonzero;stroke:none"
           transform="matrix(1,0,0,-1,163.22,722.4)"><tspan
             id="tspan44"
             y="0"
             x="0 3.94524 11.00736 14.36292 21.425039 27.6588 31.1688 37.402561 40.870441 48.55032 55.612438 62.576279 69.540123 73.485359">to be a Puddle</tspan></text>
</g></g><g
       id="g48"><g
         clip-path="url(#clipPath54)"
         id="g50" /></g><g
       id="g56"><g
         clip-path="url(#clipPath62)"
         id="g58" /></g><g
       id="g64"><g
         clip-path="url(#clipPath70)"
         id="g66" /></g><g
       id="g72"><g
         clip-path="url(#clipPath78)"
         id="g74" /></g><g
       id="g80"><g
         clip-path="url(#clipPath86)"
         id="g82" /></g><g
       id="g88"><g
         clip-path="url(#clipPath94)"
         id="g90"><text
           id="text98"
           style="font-variant:normal;font-weight:normal;font-size:12px;font-family:TimesNewRomanPSMT;-inkscape-font-specification:TimesNewRomanPSMT;writing-mode:lr-tb;fill:#000000;fill-opacity:1;fill-rule:nonzero;stroke:none"
           transform="matrix(1,0,0,-1,127.82,694.3)"><tspan
             id="tspan96"
             y="0"
             x="0 5.2800002 11.28 14.28 17.615999 20.988001 24.455999 30.216 33.216 39.216 42.551998 45.924 49.391998 55.152 58.152 64.152 67.487999 70.860001 74.328003 80.087997 83.195999 87.192001 93.192001 97.115997 100.116 105.504 110.784 114.12 117.492 123.492 126.492 135.73199 138.73199 144.73199 148.06799 153.396 159.396">an itty bitty ditty for cello &amp; piano</tspan></text>
</g></g><g
       id="g100"><g
         clip-path="url(#clipPath106)"
         id="g102" /></g><g
       id="g108"><g
         clip-path="url(#clipPath114)"
         id="g110" /></g><g
       id="g116"><g
         clip-path="url(#clipPath122)"
         id="g118"><text
           id="text126"
           style="font-style:italic;font-variant:normal;font-weight:normal;font-size:12px;font-family:TimesNewRomanPS;-inkscape-font-specification:TimesNewRomanPS-ItalicMT;writing-mode:lr-tb;fill:#000000;fill-opacity:1;fill-rule:nonzero;stroke:none"
           transform="matrix(1,0,0,-1,92.304,680.5)"><tspan
             id="tspan124"
             y="0"
             x="0 3.336 9.3360004 12.336 21 26.280001 29.280001 32.616001 37.284 40.667999 45.948002 51.948002 57.948002 62.616001 65.615997 70.907997 76.907997 82.907997 86.244003 89.615997 95.615997 98.375999 104.376 110.376 116.376 122.376 127.656 132.444 141.20399 146.48399 152.48399 155.71201 164.71201 167.71201 175.74001 181.74001 186.408 189.744 194.448 197.784 201.15601 207.15601 212.436 215.436 224.18401 229.464 235.464 241.57201">to my friends Judith VanderWeg &amp; Christine Debus</tspan></text>
</g></g><g
       id="g128"><g
         clip-path="url(#clipPath134)"
         id="g130" /></g><g
       id="g136"><g
         clip-path="url(#clipPath142)"
         id="g138" /></g><g
       id="g144"><g
         clip-path="url(#clipPath150)"
         id="g146"><text
           id="text154"
           style="font-variant:normal;font-weight:normal;font-size:12px;font-family:MS;-inkscape-font-specification:MS-Gothic;writing-mode:lr-tb;fill:#000000;fill-opacity:1;fill-rule:nonzero;stroke:none"
           transform="matrix(1,0,0,-1,84.864,651.7)"><tspan
             id="tspan152"
             y="0"
             x="0 6 12 18 24 30 36 42 48 54 60 66 72 78 84 90">to be a Puddle, </tspan></text>
</g></g><g
       id="g156"><g
         clip-path="url(#clipPath162)"
         id="g158" /></g><g
       id="g164"><g
         clip-path="url(#clipPath170)"
         id="g166" /></g><g
       id="g172"><g
         clip-path="url(#clipPath178)"
         id="g174" /></g><g
       id="g180"><g
         clip-path="url(#clipPath186)"
         id="g182"><text
           id="text190"
           style="font-variant:normal;font-weight:normal;font-size:12px;font-family:MS;-inkscape-font-specification:MS-Gothic;writing-mode:lr-tb;fill:#000000;fill-opacity:1;fill-rule:nonzero;stroke:none"
           transform="matrix(1,0,0,-1,112.94,636.1)"><tspan
             id="tspan188"
             y="0"
             x="0 6 12 18 24 30 36 42 48 54 60 66 72 78 84 90 96">having been rain;</tspan></text>
</g></g><g
       id="g192"><g
         clip-path="url(#clipPath198)"
         id="g194" /></g><g
       id="g200"><g
         clip-path="url(#clipPath206)"
         id="g202" /></g><g
       id="g208"><g
         clip-path="url(#clipPath214)"
         id="g210" /></g><g
       id="g216"><g
         clip-path="url(#clipPath222)"
         id="g218"><text
           id="text226"
           style="font-variant:normal;font-weight:normal;font-size:12px;font-family:MS;-inkscape-font-specification:MS-Gothic;writing-mode:lr-tb;fill:#000000;fill-opacity:1;fill-rule:nonzero;stroke:none"
           transform="matrix(1,0,0,-1,112.94,620.62)"><tspan
             id="tspan224"
             y="0"
             x="0 6 12 18 24 30 36 42 48 54 60 66 72 78 84 90 96 102 108 114 120 126 132">having watered the sky,</tspan></text>
</g></g><g
       id="g228"><g
         clip-path="url(#clipPath234)"
         id="g230" /></g><g
       id="g236"><g
         clip-path="url(#clipPath242)"
         id="g238" /></g><g
       id="g244"><g
         clip-path="url(#clipPath250)"
         id="g246" /></g><g
       id="g252"><g
         clip-path="url(#clipPath258)"
         id="g254"><text
           id="text262"
           style="font-variant:normal;font-weight:normal;font-size:12px;font-family:MS;-inkscape-font-specification:MS-Gothic;writing-mode:lr-tb;fill:#000000;fill-opacity:1;fill-rule:nonzero;stroke:none"
           transform="matrix(1,0,0,-1,112.94,605.02)"><tspan
             id="tspan260"
             y="0"
             x="0 6 12 18 24 30 36 42 48 54 60 66 72 78 84 90 96 102 108 114 120 126 132 138 144 150 156 162">having nourished the earth, </tspan></text>
</g></g><g
       id="g264"><g
         clip-path="url(#clipPath270)"
         id="g266" /></g><g
       id="g272"><g
         clip-path="url(#clipPath278)"
         id="g274" /></g><g
       id="g280"><g
         clip-path="url(#clipPath286)"
         id="g282" /></g><g
       id="g288"><g
         clip-path="url(#clipPath294)"
         id="g290"><text
           id="text298"
           style="font-variant:normal;font-weight:normal;font-size:12px;font-family:MS;-inkscape-font-specification:MS-Gothic;writing-mode:lr-tb;fill:#000000;fill-opacity:1;fill-rule:nonzero;stroke:none"
           transform="matrix(1,0,0,-1,112.94,589.42)"><tspan
             id="tspan296"
             y="0"
             x="0 6 12 18 24 30 36 42 48 54 60 66 72 78 84 90 96 102 108 114 120 126 132 138 144 150 156 162 168 174 180 186 192 198 204 210 216 222 228 234 240 246 252 258 264 270">having been more than a collection of droplets</tspan></text>
</g></g><g
       id="g300"><g
         clip-path="url(#clipPath306)"
         id="g302" /></g><g
       id="g308"><g
         clip-path="url(#clipPath314)"
         id="g310" /></g><g
       id="g316"><g
         clip-path="url(#clipPath322)"
         id="g318" /></g><g
       id="g324"><g
         clip-path="url(#clipPath330)"
         id="g326" /></g><g
       id="g332"><g
         clip-path="url(#clipPath338)"
         id="g334"><text
           id="text342"
           style="font-variant:normal;font-weight:normal;font-size:12px;font-family:MS;-inkscape-font-specification:MS-Gothic;writing-mode:lr-tb;fill:#000000;fill-opacity:1;fill-rule:nonzero;stroke:none"
           transform="matrix(1,0,0,-1,84.864,558.34)"><tspan
             id="tspan340"
             y="0"
             x="0 6 12 18 24">to be</tspan></text>
</g></g><g
       id="g344"><g
         clip-path="url(#clipPath350)"
         id="g346" /></g><g
       id="g352"><g
         clip-path="url(#clipPath358)"
         id="g354"><text
           id="text362"
           style="font-variant:normal;font-weight:normal;font-size:12px;font-family:MS;-inkscape-font-specification:MS-Gothic;writing-mode:lr-tb;fill:#000000;fill-opacity:1;fill-rule:nonzero;stroke:none"
           transform="matrix(1,0,0,-1,120.86,558.34)"><tspan
             id="tspan360"
             y="0"
             x="0 6 12 18 24 30 36 42 48">a Puddle,</tspan></text>
</g></g><g
       id="g364"><g
         clip-path="url(#clipPath370)"
         id="g366" /></g><g
       id="g372"><g
         clip-path="url(#clipPath378)"
         id="g374" /></g><g
       id="g380"><g
         clip-path="url(#clipPath386)"
         id="g382" /></g><g
       id="g388"><g
         clip-path="url(#clipPath394)"
         id="g390"><text
           id="text398"
           style="font-variant:normal;font-weight:normal;font-size:12px;font-family:MS;-inkscape-font-specification:MS-Gothic;writing-mode:lr-tb;fill:#000000;fill-opacity:1;fill-rule:nonzero;stroke:none"
           transform="matrix(1,0,0,-1,112.94,542.71)"><tspan
             id="tspan396"
             y="0"
             x="0 6 12 18 24 30 36 42 48 54 60 66 72 78 84 90 96 102">having been tears;</tspan></text>
</g></g><g
       id="g400"><g
         clip-path="url(#clipPath406)"
         id="g402" /></g><g
       id="g408"><g
         clip-path="url(#clipPath414)"
         id="g410" /></g><g
       id="g416"><g
         clip-path="url(#clipPath422)"
         id="g418" /></g><g
       id="g424"><g
         clip-path="url(#clipPath430)"
         id="g426"><text
           id="text434"
           style="font-variant:normal;font-weight:normal;font-size:12px;font-family:MS;-inkscape-font-specification:MS-Gothic;writing-mode:lr-tb;fill:#000000;fill-opacity:1;fill-rule:nonzero;stroke:none"
           transform="matrix(1,0,0,-1,112.94,527.23)"><tspan
             id="tspan432"
             y="0"
             x="0 6 12 18 24 30 36 42 48 54 60 66 72 78 84 90 96 102 108 114 120 126">having felt happiness,</tspan></text>
</g></g><g
       id="g436"><g
         clip-path="url(#clipPath442)"
         id="g438" /></g><g
       id="g444"><g
         clip-path="url(#clipPath450)"
         id="g446" /></g><g
       id="g452"><g
         clip-path="url(#clipPath458)"
         id="g454" /></g><g
       id="g460"><g
         clip-path="url(#clipPath466)"
         id="g462"><text
           id="text470"
           style="font-variant:normal;font-weight:normal;font-size:12px;font-family:MS;-inkscape-font-specification:MS-Gothic;writing-mode:lr-tb;fill:#000000;fill-opacity:1;fill-rule:nonzero;stroke:none"
           transform="matrix(1,0,0,-1,112.94,511.63)"><tspan
             id="tspan468"
             y="0"
             x="0 6 12 18 24 30 36 42 48 54 60 66 72 78 84 90 96 102 108 114 120 126 132 138 144 150 156 162 168 174">having known sorrow and grief,</tspan></text>
</g></g><g
       id="g472"><g
         clip-path="url(#clipPath478)"
         id="g474" /></g><g
       id="g480"><g
         clip-path="url(#clipPath486)"
         id="g482" /></g><g
       id="g488"><g
         clip-path="url(#clipPath494)"
         id="g490" /></g><g
       id="g496"><g
         clip-path="url(#clipPath502)"
         id="g498"><text
           id="text506"
           style="font-variant:normal;font-weight:normal;font-size:12px;font-family:MS;-inkscape-font-specification:MS-Gothic;writing-mode:lr-tb;fill:#000000;fill-opacity:1;fill-rule:nonzero;stroke:none"
           transform="matrix(1,0,0,-1,112.94,496.03)"><tspan
             id="tspan504"
             y="0"
             x="0 6 12 18 24 30 36 42 48 54 60 66 72 78 84 90 96 102 108 114 120 126 132 138 144 150 156 162 168 174 180 186 192 198 204 210 216 222 228 234 240 246 252 258">having lost love in the emptiness of longing</tspan></text>
</g></g><g
       id="g508"><g
         clip-path="url(#clipPath514)"
         id="g510" /></g><g
       id="g516"><g
         clip-path="url(#clipPath522)"
         id="g518" /></g><g
       id="g524"><g
         clip-path="url(#clipPath530)"
         id="g526" /></g><g
       id="g532"><g
         clip-path="url(#clipPath538)"
         id="g534" /></g><g
       id="g540"><g
         clip-path="url(#clipPath546)"
         id="g542"><text
           id="text550"
           style="font-variant:normal;font-weight:normal;font-size:12px;font-family:MS;-inkscape-font-specification:MS-Gothic;writing-mode:lr-tb;fill:#000000;fill-opacity:1;fill-rule:nonzero;stroke:none"
           transform="matrix(1,0,0,-1,84.864,464.95)"><tspan
             id="tspan548"
             y="0"
             x="0 6 12 18 24 30 36 42 48 54 60 66 72 78 84">to be a Puddle,</tspan></text>
</g></g><g
       id="g552"><g
         clip-path="url(#clipPath558)"
         id="g554" /></g><g
       id="g560"><g
         clip-path="url(#clipPath566)"
         id="g562" /></g><g
       id="g568"><g
         clip-path="url(#clipPath574)"
         id="g570" /></g><g
       id="g576"><g
         clip-path="url(#clipPath582)"
         id="g578"><text
           id="text586"
           style="font-variant:normal;font-weight:normal;font-size:12px;font-family:MS;-inkscape-font-specification:MS-Gothic;writing-mode:lr-tb;fill:#000000;fill-opacity:1;fill-rule:nonzero;stroke:none"
           transform="matrix(1,0,0,-1,112.94,449.35)"><tspan
             id="tspan584"
             y="0"
             x="0 6 12 18 24 30 36 42 48 54 60 66 72 78 84 90 96 102 108 114 120 126 132 138 144 150 156 162 168 174 180 186 192 198">having splashed and been splashed,</tspan></text>
</g></g><g
       id="g588"><g
         clip-path="url(#clipPath594)"
         id="g590" /></g><g
       id="g596"><g
         clip-path="url(#clipPath602)"
         id="g598" /></g><g
       id="g604"><g
         clip-path="url(#clipPath610)"
         id="g606" /></g><g
       id="g612"><g
         clip-path="url(#clipPath618)"
         id="g614"><text
           id="text622"
           style="font-variant:normal;font-weight:normal;font-size:12px;font-family:MS;-inkscape-font-specification:MS-Gothic;writing-mode:lr-tb;fill:#000000;fill-opacity:1;fill-rule:nonzero;stroke:none"
           transform="matrix(1,0,0,-1,112.94,433.75)"><tspan
             id="tspan620"
             y="0"
             x="0 6 12 18 24 30 36 42 48 54 60 66 72 78 84 90 96 102 108 114 120 126 132 138 144 150 156 162 168 174 180 186 192 198 204 210 216 222 228 234 240 246 252 258 264 270">reflecting the rainbow in the crystal misting,</tspan></text>
</g></g><g
       id="g624"><g
         clip-path="url(#clipPath630)"
         id="g626" /></g><g
       id="g632"><g
         clip-path="url(#clipPath638)"
         id="g634" /></g><g
       id="g640"><g
         clip-path="url(#clipPath646)"
         id="g642" /></g><g
       id="g648"><g
         clip-path="url(#clipPath654)"
         id="g650"><text
           id="text658"
           style="font-variant:normal;font-weight:normal;font-size:12px;font-family:MS;-inkscape-font-specification:MS-Gothic;writing-mode:lr-tb;fill:#000000;fill-opacity:1;fill-rule:nonzero;stroke:none"
           transform="matrix(1,0,0,-1,112.94,418.27)"><tspan
             id="tspan656"
             y="0"
             x="0 6 12 18 24 30 36 42 48 54 60 66 72 78 84 90 96 102 108 114 120">having been a cloud, </tspan></text>
</g></g><g
       id="g660"><g
         clip-path="url(#clipPath666)"
         id="g662" /></g><g
       id="g668"><g
         clip-path="url(#clipPath674)"
         id="g670" /></g><g
       id="g676"><g
         clip-path="url(#clipPath682)"
         id="g678" /></g><g
       id="g684"><g
         clip-path="url(#clipPath690)"
         id="g686"><text
           id="text694"
           style="font-variant:normal;font-weight:normal;font-size:12px;font-family:MS;-inkscape-font-specification:MS-Gothic;writing-mode:lr-tb;fill:#000000;fill-opacity:1;fill-rule:nonzero;stroke:none"
           transform="matrix(1,0,0,-1,138.86,402.67)"><tspan
             id="tspan692"
             y="0"
             x="0 6 12 18 24 30 36 42 48 54 60 66 72 78 84 90 96 102 108 114 120 126 132 138 144 150 156 162 168 174 180 186 192 198 204 210 216">to be the Rain, having been a puddle.</tspan></text>
</g></g><g
       id="g696"><g
         clip-path="url(#clipPath702)"
         id="g698" /></g><g
       id="g704"><g
         clip-path="url(#clipPath710)"
         id="g706" /></g><g
       id="g712"><g
         clip-path="url(#clipPath718)"
         id="g714" /></g><g
       id="g720"><g
         clip-path="url(#clipPath726)"
         id="g722" /></g><g
       id="g728"><g
         clip-path="url(#clipPath734)"
         id="g730" /></g><g
       id="g736"><g
         clip-path="url(#clipPath742)"
         id="g738"><text
           id="text746"
           style="font-variant:normal;font-weight:normal;font-size:12.64898396px;font-family:MS;-inkscape-font-specification:MS-Gothic;writing-mode:lr-tb;fill:#000000;fill-opacity:1;fill-rule:nonzero;stroke:none"
           transform="matrix(0.94869278,0,-0.31619931,-0.94869278,127.82,371.57)"><tspan
             id="tspan744"
             y="0"
             x="0 6.324492 12.648984 18.973476 25.297968 31.622461 37.946953 44.271446 50.595936 56.920429 63.244923 69.569412 75.893906 82.218399 88.542892 94.867378 101.19187 107.51637 113.84086 120.16535 126.48985 132.81433 139.13882 145.46332 151.78781 158.1123">James Scott Balentine 2001</tspan></text>
</g></g><g
       id="g748"><g
         clip-path="url(#clipPath754)"
         id="g750" /></g></g></svg>